<svg id="Layer_1" data-name="Layer 1" xmlns="http://www.w3.org/2000/svg" viewBox="0 0 34.01 35">
  <title>ico-medical</title>
  <path d="M33.76,6.63c-.23-.23-.41-.18-.74-.18-10.67,0-21.34,0-32,0a.94.94,0,0,0-.81.24C0,6.91,0,7.06,0,7.37V31.58a1.05,1.05,0,0,0,0,.3.83.83,0,0,0,.17.49c.23.28.82.24.82.24H5V35h5V32.61H24V35h5V32.61h4a.91.91,0,0,0,.77-.22,1,1,0,0,0,.24-.82c0-8.07,0-16.13,0-24.2A.86.86,0,0,0,33.76,6.63ZM23.85,21.37H18.92v4.94H15V21.37H10.06V17.44H15V12.51h3.93v4.93h4.93Z" transform="translate(0)"/>
  <polygon points="21.99 3.89 21.99 2.57 22.54 2.57 22.54 0 12.51 0 12.51 2.57 12.91 2.57 12.91 3.89 11.01 3.89 11.01 5.01 13.38 5.01 13.38 4.73 13.99 4.73 13.99 2.57 20.91 2.57 20.91 4.73 21.49 4.73 21.49 5.01 23.86 5.01 23.86 3.89 21.99 3.89"/>
</svg>
