<svg id="Layer_1" data-name="Layer 1" xmlns="http://www.w3.org/2000/svg" viewBox="0 0 28 30">
  <title>ico-investir</title>
  <g>
    <path d="M0,11v9.63l2-1.1V17H4v1.44l1-.56V17H6.55L8.44,16H8V13h2v2.09L12,14V11ZM4,16H2V13H4Zm3,0H5V13H7Z"/>
    <path d="M10,24H8v-.45L5.28,25H7V28H5V25.19l-1,.57V28H2V26.87L0,28v2H12V21.27l-2,1.12Zm0,4H8V25h2Z" opacity="0.99"/>
    <path d="M24.84,14.05H26V16H24V14.49L23,15.1V16H21.42l-1.88,1H20v2H18V17.86l-1.08.6V19H16l-3,1.67V30H28V12.92H26.84ZM17,28H15V26H17Zm0-3H15V23H17Zm0-3H15V20H17Zm3,3H18V23H20Zm0-3H18V20H20Zm3,3H21V23H23Zm0-3H21V20H23Zm0-3H21V17H23Zm3,9H24V26H26Zm0-3H24V23H26Zm0-3H24V20H26Zm0-3H24V17H26Z"/>
    <path d="M15,11.05H17v.16L19.19,10H18V8.05H20V9.54L21,8.93V8.05h1.59L24.56,7H24V5.05H26V6.19l2-1.14V0H13V13.4l2-1.12Zm9-9H26V4H24Zm-3,0H23V4H21Zm0,3H23V7H21Zm-3-3H20V4H18Zm0,3H20V7H18Zm-3-3H17V4H15Zm0,3H17V7H15Zm0,3H17V10H15Z"/>
  </g>
  <polygon points="0 26.01 0 23.45 24.57 9.38 23.94 8.05 27.98 8.05 27.98 12.05 26.21 11.05 0 26.01 0 26.01"/>
</svg>
