<svg id="Layer_1" data-name="Layer 1" xmlns="http://www.w3.org/2000/svg" viewBox="0 0 53.23 37.6">
  <title>ico-experts</title>
  <path d="M32.8,22.09l0,.17a1.24,1.24,0,0,0,.12.76,8.12,8.12,0,0,0,.28,2.9c.55,1.4,2,1.61,3.13,2.4a7.26,7.26,0,0,1,3.47,5.78,1.71,1.71,0,0,0,.14.62v.21A16.56,16.56,0,0,0,40,38H53.2a1.31,1.31,0,0,0-.16-.34c-1.6-2.14-1-4.68-3.19-6.55A13,13,0,0,0,43,28.36h-.18a1.69,1.69,0,0,0-.27-.13,3.26,3.26,0,0,1-2.41-3.41c-.05-.91-.07-1.82-.08-2.73,2.8-2.5,3.6-7.09,3-10.6-.58-3.19-4.23-5.89-7.44-6.2-3.85-.37-5.57,4.09-5.64,7.25,0,2-.14,4.27.6,6.11A9.14,9.14,0,0,0,32.8,22.09Z" transform="translate(0.02 -0.4)"/>
  <path d="M37.74,35.66c-.79-1.77-.44-3.55-1.9-5a18.48,18.48,0,0,0-4.56-2.77,29.82,29.82,0,0,0-6.76-2.5,3,3,0,0,0-.43-.44L24,24.78l-.41-.61c-.12-.19-.24-.4-.38-.58s0-.05,0-.07,0-.13-.05-.2a.83.83,0,0,0,0-.15c0-.31,0-.62,0-.93a18.29,18.29,0,0,0-.26-2.67,1.8,1.8,0,0,0,0-.22,2.36,2.36,0,0,0,.36-1,.35.35,0,0,0,.1-.08A10.9,10.9,0,0,0,25.2,15.9a3,3,0,0,0,.3-.79,2.19,2.19,0,0,0,.41-1.66,6.71,6.71,0,0,0,.18-2.59l-.21-4.15a2.45,2.45,0,0,0-.35-1.19,4.16,4.16,0,0,0-1-2.08,9.37,9.37,0,0,0-4.38-2.27C18.41.61,16.68-.06,14.94.84A6.1,6.1,0,0,0,12.13,5c0,.11,0,.2-.05.3a2.52,2.52,0,0,0-.16.85c0,1.75-.05,3.49,0,5.23A2.43,2.43,0,0,0,12,12a1.64,1.64,0,0,0,0,.85h0a1.14,1.14,0,0,0,0,.37A2.69,2.69,0,0,0,12.57,15a2.42,2.42,0,0,0,1,1.44c.08.15.13.3,0,0h0a3,3,0,0,0,.51.79l.17.31a3.52,3.52,0,0,0,.33,1.09,1.6,1.6,0,0,0,.29,1.11,1.48,1.48,0,0,0,.16.46,4.31,4.31,0,0,0,0,1.75,2.29,2.29,0,0,0-.09.28,3.05,3.05,0,0,0-.08.74,1.48,1.48,0,0,0-.16.58,7.72,7.72,0,0,0-.65,1.2,2.53,2.53,0,0,0-.12.36c-.52.18-1,.37-1.55.57a2.44,2.44,0,0,0-1,.28c-1.46.77-4,1.27-5.52,2.43C2.53,29.9,1.47,31.19.09,35.37a2.24,2.24,0,0,0,0,1.45A2.94,2.94,0,0,0,.19,38H37.77A2.93,2.93,0,0,0,37.74,35.66Z" transform="translate(0.02 -0.4)"/>
</svg>
