<svg id="Layer_1" data-name="Layer 1" xmlns="http://www.w3.org/2000/svg" viewBox="0 0 167.27 207.98">
  <title>logo-ptz</title>
  <polygon points="83.63 0 0 56.98 10.63 63.48 83.63 15.08 157.28 63.48 167.28 57.13 139.66 39.04 139.82 16.66 123 16.66 122.84 26.66 83.63 0"/>
  <g>
    <path d="M264.93,341.52c-.46,0-.91,0-1.36,0a12,12,0,0,1-1.25-.09v12h-5.11v-30.7h8.06a28.19,28.19,0,0,1,3.54.19,14.63,14.63,0,0,1,2.7.59,8.68,8.68,0,0,1,4.41,3.07,8.87,8.87,0,0,1,1.54,5.37,9.43,9.43,0,0,1-.83,4,8.08,8.08,0,0,1-2.45,3,11.47,11.47,0,0,1-3.92,1.91A19.53,19.53,0,0,1,264.93,341.52Zm-2.61-4.84a9.46,9.46,0,0,0,1.12.1c.45,0,.92,0,1.41,0a13.7,13.7,0,0,0,3.47-.37,6.18,6.18,0,0,0,2.25-1,3.75,3.75,0,0,0,1.23-1.58,5.39,5.39,0,0,0,.38-2,4.56,4.56,0,0,0-.57-2.34,3.69,3.69,0,0,0-2-1.54,7.29,7.29,0,0,0-1.8-.4,22,22,0,0,0-2.65-.13h-2.88Z" transform="translate(-222.37 -267.14)"/>
    <path d="M303.57,331.93a9,9,0,0,1-1.62,5.45,9.52,9.52,0,0,1-5,3.32v.09l8.31,12.62h-6.14l-7.6-11.89H288v11.89h-5.12v-30.7h8.5a26.82,26.82,0,0,1,3.93.26,13.66,13.66,0,0,1,3.11.79,8.24,8.24,0,0,1,3.8,3.06A9.14,9.14,0,0,1,303.57,331.93Zm-13,4.89a22.47,22.47,0,0,0,3-.17,8.81,8.81,0,0,0,2.06-.52,4.08,4.08,0,0,0,2.14-1.75,5.34,5.34,0,0,0,.59-2.56,4.84,4.84,0,0,0-.47-2.2,3.33,3.33,0,0,0-1.59-1.5,6.6,6.6,0,0,0-1.84-.54,19,19,0,0,0-2.74-.17H288v9.41Z" transform="translate(-222.37 -267.14)"/>
    <path d="M314.87,348.71h13.74v4.7H309.75v-30.7h18.1v4.7h-13v7.94H326v4.71H314.87Zm1.94-33.3h4.3l4.51,5.67H321.3l-2.3-2.9h-.08l-2.32,2.9h-4.3Z" transform="translate(-222.37 -267.14)"/>
    <path d="M345.46,353.41h-5.12v-26h-9v-4.7h23.14v4.7h-9Z" transform="translate(-222.37 -267.14)"/>
  </g>
  <g>
    <path d="M269.52,379.77h-7.16l-1.86,5.33h-3.71l7.55-20.91h3.18l7.55,20.91h-3.68Zm-4.06-20.55,2,3.86h-2.67l-2.7-3.86Zm.45,10q-1,3.28-1.78,5.49l-.65,1.86h4.92l-.65-1.86c-.51-1.48-1.11-3.31-1.78-5.49Z" transform="translate(-222.37 -267.14)"/>
    <path d="M289.56,385.1h-3.48V367.4h-6.15v-3.21h15.76v3.21h-6.13Z" transform="translate(-222.37 -267.14)"/>
    <path d="M307.72,379.77h-7.17l-1.86,5.33H295l7.55-20.91h3.18l7.55,20.91h-3.68Zm-3.61-10.55q-1,3.28-1.78,5.49l-.65,1.86h4.91l-.65-1.86c-.51-1.48-1.11-3.31-1.78-5.49Z" transform="translate(-222.37 -267.14)"/>
    <path d="M323.84,385.49a10.61,10.61,0,0,1-2.69-.32,7.16,7.16,0,0,1-2.1-.92,6,6,0,0,1-1.55-1.47,7.15,7.15,0,0,1-1-2,9.2,9.2,0,0,1-.45-1.94,18.9,18.9,0,0,1-.14-2.37V364.19h3.49v12a10,10,0,0,0,.48,3.47,3.85,3.85,0,0,0,1.58,2,5.13,5.13,0,0,0,4.89,0,3.85,3.85,0,0,0,1.58-2,10,10,0,0,0,.48-3.47v-12h3.49v12.32a18.9,18.9,0,0,1-.14,2.37,9.2,9.2,0,0,1-.45,1.94,7.17,7.17,0,0,1-1,2,6,6,0,0,1-1.58,1.47,7.29,7.29,0,0,1-2.14.92A10.64,10.64,0,0,1,323.84,385.49Z" transform="translate(-222.37 -267.14)"/>
    <path d="M341.37,368.49c.92,1.47,1.57,2.52,1.94,3.16h.07c.51-.88,1.15-1.93,1.92-3.14l2.71-4.32h4l-6.62,10.28,6.91,10.63h-4l-3-4.67c-.73-1.15-1.4-2.23-2-3.25h-.05c-.65,1.06-1.32,2.14-2,3.25l-3,4.67h-4l6.91-10.63-6.62-10.28h4Z" transform="translate(-222.37 -267.14)"/>
  </g>
  <g>
    <path d="M249.73,469.18q-5.47-5.93-5.47-16.45V416.91q0-10.62,5.5-16.5t15.95-5.89q10.5,0,16,5.86t5.48,16.53v35.82q0,10.63-5.5,16.51t-16,5.88Q255.21,475.12,249.73,469.18Zm22-11.43q1.92-3.06,1.92-8.81V420.7q0-5.74-1.92-8.8a7.44,7.44,0,0,0-12,0q-1.92,3.06-1.92,8.8v28.24q0,5.74,1.92,8.81a7.45,7.45,0,0,0,12,0Z" transform="translate(-222.37 -267.14)"/>
    <path d="M300.9,425.61q-3.37-3.66-3.38-10.22v-6.77q0-6.56,3.38-10.22t9.55-3.66q6.21,0,9.56,3.66t3.36,10.32v6.67q0,6.62-3.38,10.24c-2.25,2.43-5.44,3.64-9.54,3.64S303.15,428.05,300.9,425.61Zm40.52-30.11H353.7l-37.48,78.81H303.93ZM312.1,417.23a4.09,4.09,0,0,0,.56-2.33v-6a3.73,3.73,0,0,0-.56-2.19,2.13,2.13,0,0,0-3.31,0,3.89,3.89,0,0,0-.56,2.3v5.85a4,4,0,0,0,.56,2.36,1.91,1.91,0,0,0,1.66.79A1.88,1.88,0,0,0,312.1,417.23Zm24.46,54.23q-3.37-3.66-3.38-10.22v-6.77q0-6.56,3.38-10.22t9.54-3.66q6.22,0,9.57,3.66T359,454.58v6.66q0,6.61-3.38,10.25t-9.55,3.63Q339.94,475.12,336.56,471.46Zm11.2-8.37a4.13,4.13,0,0,0,.56-2.33v-6a3.73,3.73,0,0,0-.56-2.19,2.13,2.13,0,0,0-3.31,0,3.88,3.88,0,0,0-.57,2.3v5.86a4,4,0,0,0,.57,2.35,2.11,2.11,0,0,0,3.31,0Z" transform="translate(-222.37 -267.14)"/>
  </g>
</svg>
