<svg id="Layer_1" data-name="Layer 1" xmlns="http://www.w3.org/2000/svg" viewBox="0 0 55.03 70">
  <title>notaire</title>
  <path d="M332,361H281l-2,2c0,1.24,0,24.32,0,25.52V429l2,2h51l2-2V363Zm-47,30.53,6,0v6l-6,0Zm0,9,6,0v6l-6,0Zm0,9,6,0v6l-6,0ZM300.49,425H285v-6l15.51-.14Zm0-9.54-6,0v-6l6,0Zm0-9-6,0v-6l6,0Zm0-9-6,0v-6l6,0Zm9,3v6l-6,0v-6Zm-6-3v-6l6,0v6Zm6,12v6l-6,0v-6Zm0,15.46-6,0v-6l6,0Zm9.24-24.46v6l-6,0v-6Zm-6-3v-6l6,0v6Zm6,12v6l-6,0v-6Zm0,15.46-6,0v-6l6,0Zm9.24,0-6,0V409.53l6,0Zm0-18.52-6,0v-6l6,0Zm0-9-6,0v-6l6,0ZM328,385H285V367h43Z" transform="translate(-278.97 -361)"/>
</svg>
