<svg id="Layer_1" data-name="Layer 1" xmlns="http://www.w3.org/2000/svg" viewBox="0 0 76.05 90.02">
  <title>ico-magnifier2</title>
  <path d="M49.92,62.27c-4.81.57-11,.27-15-1.08L13.32,88.61a3.68,3.68,0,0,1-5.17.61L2.38,84.67a3.68,3.68,0,0,1-.62-5.17L23.32,53.87c-4.35-4.45-7.5-12-8.35-19.15C12.93,17.46,25.32,2.27,42.58.22s32.17,9.91,34.21,27.17S67.18,60.22,49.92,62.27Zm18.4-33.8a22.61,22.61,0,1,0-19.79,25A22.59,22.59,0,0,0,68.32,28.47Z" transform="translate(-0.97 0.01)" fill-rule="evenodd"/>
  <polygon points="40.43 36.24 50.63 46.44 60.83 36.25 60.83 26.04 50.63 26.04 50.63 36.24 40.43 36.24" fill="#00b0e3"/>
  <polygon points="50.63 26.04 40.43 36.24 50.63 36.24 50.63 26.04" fill="#007baa"/>
  <polygon points="40.43 36.24 45.53 41.34 40.43 46.44 30.23 36.24 40.43 36.24" fill="#c7d301"/>
  <polygon points="30.23 36.24 40.43 26.04 40.43 36.24 30.23 36.24" fill="#818b03"/>
  <polygon points="40.43 26.04 40.43 36.24 50.63 26.04 40.43 26.04" fill="#c7d301"/>
  <rect x="40.43" y="15.84" width="10.2" height="10.19" fill="#e4022e"/>
  <path d="M41.4,26l-5.1,5.1L31.2,26Z" transform="translate(-0.97 0.01)" fill="#e4022e"/>
  <polygon points="40.43 15.84 40.43 26.04 30.23 26.04 40.43 15.84" fill="#9d0d1c"/>
</svg>
