<svg id="Calque_1" data-name="Calque 1" xmlns="http://www.w3.org/2000/svg" viewBox="0 0 535.26 582.56">
  <title>ico-map</title>
  <path d="M147.74,496.43l10.73,7.86,9.42-.9,4.54,3.87,4.66-2,4,.28,8.87,2.45.69-10,7.63,1.37,13.7,7.55,6-.5,3.75,7.15,9,.23,4.6,3-1.44,4.36,6,2,7.11,10.16,10.59-6.08,5.12,3.62,7.24,5.68,6-4.93,4.85,3.6,5.51-6.07,12.14.12,3.48,2.7,3.1-4-3.86-5.49-3.24-2.13-1.24-14.78c0-.86-.24-17,10.91-23,.2-.14,3.87-2.84,11.18-2.16.39-.31,7.77-6.23,10.56-5.51.37-.63,7.65-12.62,19.76-11.94l2.47,5.13,6.46.64,9.83.83,3.83,5.77,8.91,2.16,2.06-5.43,5.64.31,3.55,5.76,9.49-2.25,5.61,4.75-4.47,3.37,4.35,2.46,13.23.74,4.37,6.36,7.95,3.5-.78-5,11.92,3.45-.76-5.33,9.71,2.49,2.3-4.59,8.57.89,6.5-6.43-6.14-1.18,4.91-5.55,6.27-.76,5.28-9.56,5.47.17,7.76-10.12L505,454.3l4.25-12.53,7.5-6.25-3.13-7.95-11.17,2.15-11.63-3.42L480.73,421,476,416.87l2.83-6.08-4.21-4.53,2.78-7.15,2.32-2.6,4.49-1.29-.94-9.06-7-1.23-10.83-17,11.8-1,4.81-4.17,5.38-.26.36-9.14,3.09-4-7.08-3.72-1.61-9.54-7.76-6.27.44-6.35,8.66-2.58,1.11-8-8.31-6.57-3.25-6,6.36-2.15-2.49-9-17.17-1-7.16,5.42-.16,6.39-11.13,5.75-1.28.07-1.31-3.54,8.38-6.76-3.81-11.41,3.57-8-.78-7.12.21-1,10.89-6.33,2-8.21,25.78-21.33.28-4.14-9.81-1.16,4.21-3.61,5.79-1.06.67-6.62,1.33,4.58,4.73,6.09,2.5-3.53,5.09-.79,7.18-9.59-3.41-7.45,7-15.16-2-4,14.76-41.93,7.78-6.23,2.9-9.28-22.82-5.17-4,.3-1-6.78-6.53-1.06L491,119.17l-10.84-6.72-6.49,4.08-11.33-16.18-5.14.82-4.27-3.57-11.54,3.24-10.06-7.16-9.9,1.6-4.95-1.89-15.37-14.7-5.6-.87-.24-21.11L382.38,67.32,371,66.39l-2.45-18.56-18-1.57L346.8,35l-9.48-1.65-5.66-16.42-13.29,4.25-7-5.39L308,0,290.83,2.37,276,4.87l-6.36,5.52-4.49,28-3.77,5.27-.42,8.18-4.16,5.79-9.34,4.47-15.37,5.52L219.7,70.53l-9.18,6.15-3.65,7.85,6.41,1.19,3.63.77,10,2.22-7-.4-7.47,1.81L205.56,92l-8.2,3.34-32.66-6-5.37,0-3.81-10.21,3.14-4.54.05-5-3.26-1.85-6.92,2.11-10.74,0L133,65.94l-3.27,2.32,4.53,3.87-2.4,6.25,7.93,20.16-1.89,27.39,5.52,6.13-8.47.78-8,0L126,130l1.28-2.16-6.54.47.26,4.46-3.05.82-2.27-2.19-5.78,1.9.46-6.63-9.17,1.7-9.39,5-8.13-13.23-4.92-4,1-6.61L69.5,112.69l-8.45-.47L49.53,123.51,46.59,117l-3.83,6.46-5.29-5.3-13.74,2.57-3.19-3L4.91,123l.22,5-4,.89,3,5.72H14.28l8.08-2.31-3.6,3.12,5.32,4.74L15,141.28l-3.71-3.53L7.1,140.29l3.72,3.54,1.5,2.86,2.44-2.64,6.34,6.46-6.42,3L0,153.21c.74.24,14.93,4.73,14.13,16.35L24,174l-.14-6.11,8.45.47,2,4L47,174.85l7.26,7.75,2.93-1.5,6.53,3.7,1.35,5.07-1.59,6.58,3.11,4.06,0-8.88,5.21-1.94h9.62L81.8,193l-7.35.15,5.81,5.87,14.77.71-5.53,4,1.36,4.8-4,1.44,11,4,6.44-3.24,15.32,3.35-14.44.3-3.84,6.45,8.09,5.74-1,2.43-6.18,3.54,1.14,3.95-4.1,2,10.07,9.72,3.59,13.54a28.75,28.75,0,0,1,4.49.52c.83.32,10.35,10.09,10.86,10.6l8.07,1.85-5.28,6.92,8.3,10.74-4.62,1.41,3.58,5.48-5,7.49-5.93,3.17-5.53-5.28-9.1-3.28,1.07,5.05,10,7,1.72,4,.32.74,1,.47,6.59,3.12,6.81,7.61L145.3,340l.86,19-5.4-20-9-9.38-.75-5.6-3.64,3.68c2.19,8.64-7.82,49.43-8,50.09l4.51-3.92,4.31,7.19h-9.9l-1.52,5.75-6.69,35.44L102.91,441l-7,8.89L89,454.58l-7.43,1.25,1.18,3.4,5.06.29,2.48,5.13,5-3.33L99.26,466l-4.39,10.3,5.79,2,4.55-4.46,2,4.28,20.3,8.91,5.07,8.33,15.21.85" transform="translate(0.26 0.95)" fill="#fff" stroke="#000206" stroke-width="1.7"/>
  <path d="M511.09,123.17l-4,.3-1-6.78-6.53-1.06L491,119.17l-10.84-6.72-6.49,4.08-11.33-16.18-5.14.82-4.27-3.57-11.54,3.24-10.06-7.16-9.9,1.6-4.95-1.89-15.37-14.7-5.6-.87-.24-21.11L382.38,67.32,371,66.39l-2.45-18.56-18-1.57L346.8,35l-9.48-1.65-5.66-16.42-13.29,4.25-7-5.39L308,0,290.83,2.37,276,4.87l-6.36,5.52-4.49,28-3.77,5.27-.42,8.18-4.16,5.79-9.34,4.47-15.37,5.52L219.7,70.53l-9.18,6.15-3.65,7.85,6.41,1.19,3.63.77,10,2.22-7-.4-7.47,1.81L205.56,92l-8.2,3.34-32.66-6-5.37,0-3.81-10.21,3.14-4.54.05-5-3.26-1.85-6.92,2.11-10.74,0L133,65.94l-3.27,2.32,4.53,3.87-2.4,6.25,7.93,20.16-1.89,27.39,5.52,6.13-8.47.78-8,0L126,130l1.28-2.16-6.54.47.26,4.46-3.05.82-2.27-2.19-5.78,1.9.46-6.63-9.17,1.7-9.39,5-8.13-13.23-4.92-4,1-6.61L69.5,112.69l-8.45-.47L49.53,123.51,46.59,117l-3.83,6.46-5.29-5.3-13.74,2.57-3.19-3L4.91,123l.22,5-4,.89,3,5.72H14.28l8.08-2.31-3.6,3.12,5.32,4.74L15,141.28l-3.71-3.53L7.1,140.29l3.72,3.54,1.5,2.86,2.44-2.64,6.34,6.46-6.42,3L0,153.21c.74.24,14.93,4.73,14.13,16.35L24,174l-.14-6.11,8.45.47,2,4L47,174.85l7.26,7.75,2.93-1.5,6.53,3.7,1.35,5.07-1.59,6.58,3.11,4.06,0-8.88,5.21-1.94h9.62L81.8,193l-7.35.15,5.81,5.87,14.77.71-5.53,4,1.36,4.8-4,1.44,11,4,6.44-3.24,15.32,3.35-14.44.3-3.84,6.45,8.09,5.74-1,2.43-6.18,3.54,1.14,3.95-4.1,2,10.07,9.72,3.59,13.54a28.75,28.75,0,0,1,4.49.52c.83.32,10.35,10.09,10.86,10.6l8.07,1.85-5.28,6.92,8.3,10.74-4.62,1.41,3.58,5.48-5,7.49-5.93,3.17-5.53-5.28-9.1-3.28,1.07,5.05,10,7,1.72,4,.32.74,1,.47,6.59,3.12,6.81,7.61L145.3,340l.86,19-5.4-20-9-9.38-.75-5.6-3.64,3.68c2.19,8.64-7.82,49.43-8,50.09l4.51-3.92,4.31,7.19h-9.9l-1.52,5.75-6.69,35.44L102.91,441l-7,8.89L89,454.58l-7.43,1.25,1.18,3.4,5.06.29,2.48,5.13,5-3.33L99.26,466l-4.39,10.3,5.79,2,4.55-4.46,2,4.28,20.3,8.91,5.07,8.33,15.21.85,1.41-12.29-1.43,12.53,10.73,7.86,9.42-.9,4.54,3.87,4.66-2,4,.28,8.87,2.45.69-10,7.63,1.37,13.7,7.55,6-.5,3.75,7.15,9,.23,4.6,3-1.44,4.36,6,2,7.11,10.16,10.59-6.08,5.12,3.62,7.24,5.68,6-4.93,4.85,3.6,5.51-6.07,12.14.12,3.48,2.7,3.1-4-3.86-5.49-3.24-2.13-1.24-14.78c0-.86-.24-17,10.91-23,.2-.14,3.87-2.84,11.18-2.16.39-.31,7.77-6.23,10.56-5.51.37-.63,7.65-12.62,19.76-11.94l2.47,5.13,6.46.64,9.83.83,3.83,5.77,8.91,2.16,2.06-5.43,5.64.31,3.55,5.76,9.49-2.25,5.61,4.75-4.47,3.37,4.35,2.46,13.23.74,4.37,6.36,7.95,3.5-.78-5,11.92,3.45-.76-5.33,9.71,2.49,2.3-4.59,8.57.89,6.5-6.43-6.14-1.18,4.91-5.55,6.27-.76,5.28-9.56,5.47.17,7.76-10.12L505,454.3l4.25-12.53,7.5-6.25-3.13-7.95-11.17,2.15-11.63-3.42L480.73,421,476,416.87l2.83-6.08-4.21-4.53,2.78-7.15,2.32-2.6,4.49-1.29-.94-9.06-7-1.23-10.83-17,11.8-1,4.81-4.17,5.38-.26.36-9.14,3.09-4-7.08-3.72-1.61-9.54-7.76-6.27.44-6.35,8.66-2.58,1.11-8-8.31-6.57-3.25-6,6.36-2.15-2.49-9-17.17-1-7.16,5.42-.16,6.39-11.13,5.75-1.28.07-1.31-3.54,8.38-6.76-3.81-11.41,3.57-8-.78-7.12.21-1,10.89-6.33,2-8.21,25.78-21.33.28-4.14-9.81-1.16,4.21-3.61,5.79-1.06.67-6.62,1.33,4.58,4.73,6.09,2.5-3.53,5.09-.79,7.18-9.59-3.41-7.45,7-15.16-2-4,14.76-41.93,7.78-6.23,2.9-9.28ZM127.14,184.91l-7.3-.69-4.73,3.06,4.73-3.06,7.3.68,6.62-5.74Zm19.48-8.39-5.42,7.37,5.42-7.38.87-4.38ZM154.06,479v-.21l11.08-9Zm9.82-127.7,6.83,6.7,4.45-3.18-4.35,3.32ZM180,426.05l-8.64-.68,8.65.44,7.54-2.79Zm12.34-280.43.07.06.86,7.51Zm14.71,174.49,12.65-12.17-7-12.54,7.1,12.68ZM266.91,94.22h0l-3-3.64Zm-34.05,61.9.55-8-1.09-3.88,1.19,4-.56,8-6.43,2.35Zm-6,182.49v0l3-.17Zm4.19,6.76.49-7.05h.07Zm7.15,134.94.22-8.23h.1l-.23,8.22,10.78,9.09Zm4.88-8.45.58,0v0Zm5,37.84-5.92-4.76,6.07,4.72Zm.18,0,4.84-1.18.09.14Zm-4-228-10.49-2.28-8.17-15.57v-.06l8.16,15.63,10.41,2.13,9.39-1Zm11.37-136.21v-.09l9.17,7.72Zm7.61,325.65-.1-.06.22-1.58Zm.43-3.95v-.07l12.7,4.3ZM280,317.1h0l4.39,4.89,0,0Zm4.55,27.38-.15,2.21.38-9.69Zm7.16-169.75,16.31,3,4.94.92Zm21.53,84.6,0-2.65.17-4.08Zm23-83.95h-.08l1-6.44.07,0Zm26.31-75.83-1.12,3.83L365,87.66ZM367.76,193l4.13-2.27,6.61-3ZM384,185l-.15-.18.16.18Zm12.4,22.11-.05,0,.17-1.63Zm18.29,28,.81-6.08.06.11Zm-1.58-10.87-.09-.16,5.49-6.81.13.1Z" transform="translate(0.26 0.95)" fill="#fff" stroke="#000206"/>
  <polyline points="526.44 497.54 521.19 496.89 521.37 497.25 518.57 513.21 514.63 511.38 508.85 514.89 499.65 517.14 492.62 528.97 492.66 534.43 489.23 537.06 489.8 543.81 496.22 544.63 490.8 552.38 496.22 553.2 493.23 560.11 502.23 561.72 496.75 567.52 500.5 571.31 499.06 574.87 507.51 575.35 514.41 581.84 519.93 575.49 522.82 554.27 522.48 549.25 529.47 542.66 530.04 524.06 526.19 512.04 526.44 497.54" fill="#fff" stroke="#000206"/>
  <polygon points="327.51 62.93 300.69 58.37 303.1 52.11 289.2 52.73 281.86 44.54 271.73 43.98 265.38 39.33 269.87 11.34 276.23 5.82 291.09 3.32 308.22 0.95 311.65 16.69 318.63 22.08 331.92 17.83 337.57 34.25 347.06 35.9 350.81 47.21 368.78 48.78 371.23 67.34 365.47 71.6 359.08 65.69 349.16 68.3 341.56 65.82 331.62 69.12 327.51 62.93" fill="#fff" stroke="#000206"/>
  <polygon points="323.6 117.98 321.51 122.79 297.75 121.04 291.62 113.75 284.38 116.12 278.99 112.35 263.03 114.39 263.39 100.79 267.17 95.17 264.19 91.53 268.3 78.55 265.99 69.7 260.71 61.77 261.61 44.6 265.38 39.33 271.73 43.98 281.86 44.54 289.2 52.73 303.1 52.11 300.69 58.37 327.51 62.93 331.62 69.12 341.56 65.82 349.16 68.3 359.08 65.69 365.47 71.6 371.23 67.34 371.61 78.41 365.25 88.61 361.67 104.33 344.11 107.34 348.01 117.99 342.3 117.24 342.99 131.72 333.69 134 323.6 117.98" fill="#fff" stroke="#000206"/>
  <polygon points="263.44 100.85 263.03 114.39 253.59 119.05 251.1 132.38 233.22 139.11 227.01 129.22 223.82 123.78 216.05 121.94 217.38 104.94 212.68 91.07 220.15 89.26 227.19 89.66 217.17 87.44 213.54 86.67 207.13 85.48 210.78 77.63 219.96 71.48 232.32 68.56 247.68 63.04 257.03 58.57 261.25 52.69 260.77 61.83 265.99 69.7 268.3 78.55 264.19 91.53 267.22 95.24 263.44 100.85" fill="#fff" stroke="#000206"/>
  <polygon points="223.82 123.78 233.22 139.11 232.58 145.17 233.67 149.05 233.12 157.07 226.78 159.56 226.57 166.98 220.15 162.33 212.44 159.41 212.49 154.68 209.13 150.05 193.55 154.14 192.69 146.63 186.26 140.96 166.37 146.62 161.62 140.78 146.68 138.18 142.32 144.04 135.25 140.03 135.18 133.79 143.65 133.01 138.13 126.88 140.02 99.49 132.09 79.33 134.49 73.08 129.96 69.21 133.23 66.89 138.05 70.78 148.79 70.82 155.71 68.71 158.97 70.56 158.91 75.56 155.78 80.1 159.59 90.31 164.96 90.34 197.62 96.33 205.81 92.99 212.68 91.07 217.38 104.94 216.05 121.94 223.82 123.78" fill="#fff" stroke="#000206"/>
  <polygon points="308.3 178.63 291.99 175.68 288.05 165.92 272.81 166.24 265.05 154.06 255.74 146.22 255.55 137.48 251.1 132.38 253.59 119.05 263.03 114.39 278.99 112.35 284.38 116.12 291.62 113.75 297.75 121.04 321.51 122.79 323.6 117.98 333.69 134 337.11 149.88 332.35 154.08 330.94 166.16 317.62 166.51 308.3 178.63" fill="#fff" stroke="#000206"/>
  <path d="M106.4,188l-3.82,8.91L95,199.76l-14.77-.71-5.81-5.87L81.8,193l-.33-3.35H71.85l-5.21,1.94,0,8.88-3.11-4.06,1.59-6.58-1.35-5.07-6.53-3.7-2.93,1.5L47,174.85l-12.71-2.49-2-4-8.45-.47L24,174l-9.87-4.44C14.93,157.94.74,153.45,0,153.21l14.68.28,6.42-3-6.34-6.46-2.44,2.64-1.5-2.86L7.1,140.29l4.14-2.54L15,141.28l9.13-1.15-5.32-4.74,3.6-3.12-8.08,2.31H4.11l-3-5.72,4-.89-.22-5,15.63-5.23,3.19,3,13.74-2.57,5.29,5.3L46.59,117l2.94,6.56,11.52-11.29,8.45.47,10.28-3.19-1,6.61,4.92,4,8.13,13.23,9.39-5,9.17-1.7-.46,6.63,5.78-1.9,2.27,2.19,3.05-.82-.26-4.46,6.54-.47L126,130l.94,2.82,8,0,.07,6.24,7.07,4,4.36-5.86,9.72,1.65L155,153.11l-4.21,3.65,4,11.06-.32,4.7-7-.39-.87,4.38-5.42,7.38-7.44-4.73-6.62,5.74-7.3-.68-4.73,3.06Z" transform="translate(0.26 0.95)" fill="#fff" stroke="#000206"/>
  <path d="M383.88,184.86l.27.34-12.26,5.52-7.64,4.2-3.66-4.1-11.38,1-6.29-15.36-6.72-.93,1-6.6-6.53-3.76,1.41-12.08,4.76-4.2-3.42-15.88,9.3-2.28L342,116.29l5.71.75-3.9-10.64,17.56-3,1.12-3.83L365,87.66l6.36-10.2L371,66.39l11.41.93,12.89-10.61.24,21.11,5.6.87,15.37,14.7-3,2.66-7.78-2.16-7.95,19.88-1.56,10.68,4.9,2.44-2,13.26-6.2-.34,3.31,9,5.6,2.05,15,12.49-.72,6.41,10.34,1.69c0,.42.27,8.35.21,9.17l-2.75,2.86,9,9.44-8,9.81.52,4.76-3.84,2.29-2.09-2.34-6,5.49-11.73-2.05-5.18-3.58.54-7.79Z" transform="translate(0.26 0.95)" fill="#fff" stroke="#000206"/>
  <polygon points="490.57 171.28 486.75 169.39 485.14 159.87 493.19 150.74 496.43 143.84 492.14 140.27 485.2 142.65 480.63 135.18 485.71 127.13 494.47 132.66 504.62 131.52 507.09 124.44 511.35 124.13 534.17 129.29 531.27 138.57 523.49 144.8 508.73 186.73 510.71 190.73 503.73 205.89 507.14 213.34 499.96 222.93 494.87 223.72 492.37 227.25 487.64 221.16 486.31 216.58 481.56 211.87 480.44 206.78 473.7 203.68 483.01 186.68 484.16 178.14 490.57 171.28" fill="#fff" stroke="#000206"/>
  <path d="M193.29,153.19l15.58-4.09,3.36,4.63,0,4.73,7.71,2.92,6.42,4.65,7.1,7.92-5.86.41L227,185.93l-9.1,5.56-.14,7.93-18.78,1.2-1.55,16.21-7,4.79,1.62,6.94-6.44,2.87-22.93-1-5.11,4.62-19.5-5.84,10.51,9.62,1,6.44L160,253.94l-3.72,4.78.83,12.55,3.29,3.45-7.87,4-2.08-3.46-14.09-.51-8.07-1.85c-.51-.51-10-10.28-10.86-10.6a28.75,28.75,0,0,0-4.49-.52l-3.59-13.54-10.07-9.72,4.1-2-1.14-3.95,6.18-3.54,1-2.43-8.09-5.74,3.84-6.45,14.44-.3-15.32-3.35L97.84,214l-11-4,4-1.44-1.36-4.8,5.53-4,7.55-2.9L106.4,188l8.71-.67,4.73-3.06,7.3.69,6.62-5.75,7.44,4.73,5.42-7.37.87-4.39,7,.39.32-4.7-4-11.06,4.21-3.65,1.12-14.23,5.22,1,4.75,5.84L186,140l6.36,5.6Z" transform="translate(0.26 0.95)" fill="#fff" stroke="#000206"/>
  <polygon points="271.12 281.92 253.82 281.52 244.43 282.49 234.02 280.36 225.83 264.67 227.11 255.27 220.86 253.75 211.22 240.9 201 243.31 200.94 233.07 192.31 229.51 190.69 222.57 197.65 217.78 199.06 201.55 217.98 200.37 218.12 192.44 227.1 186.71 227.81 175.31 233.67 174.9 226.57 166.98 226.78 159.56 233.21 157.21 233.77 149.19 232.58 145.17 233.22 139.11 251.1 132.38 255.55 137.48 255.88 146.43 265.05 154.06 272.81 166.24 288.05 165.92 291.99 175.68 313.24 179.55 314.01 192.92 308.74 203.74 312.08 211.66 307.4 214.92 306.76 222.63 311.4 228.99 310.18 246.69 313.67 253.55 313.5 257.63 313.52 260.28 291.73 265.85 289.52 277.39 275.58 282.71 271.12 281.92" fill="#fff" stroke="#000206"/>
  <polygon points="473.7 203.68 480.44 206.78 481.56 211.87 486.31 216.58 485.64 223.2 479.85 224.26 475.64 227.87 485.45 229.03 485.17 233.17 459.39 254.5 457.41 262.71 446.52 269.04 446.31 270.01 447.09 277.13 443.51 285.09 423.7 297.85 417.81 293.09 412.19 296.66 403.96 288.97 408.7 284.7 406.72 280.98 407.57 271.77 401.6 264.21 408.83 261.84 401.91 255.31 414.98 236.09 415.85 230.12 413.37 225.26 418.93 218.35 413.59 213.89 419.62 208.4 421.71 210.74 425.55 208.45 425.03 203.69 433.05 193.88 444.85 190.88 445.19 196.01 455.84 193.27 460.63 199.53 463.8 194.72 473.7 203.68" fill="#fff" stroke="#000206"/>
  <polygon points="312.08 211.66 308.74 203.74 314.01 192.92 313.24 179.55 308.3 178.63 317.62 166.51 330.94 166.16 337.42 169.72 336.4 176.32 343.13 177.26 349.42 192.61 360.79 191.58 364.47 195.67 384.36 185.96 397.43 200.62 396.64 208.06 401.8 211.65 413.53 213.7 418.87 218.16 413.31 225.06 415.81 229.93 414.98 236.09 401.91 255.31 408.83 261.84 401.6 264.21 407.57 271.77 406.72 280.98 389.51 280.86 387.41 294.82 383.77 299.24 374.16 290.89 363.54 301.4 352.56 300.17 348.11 295.53 351.56 290.11 351.67 280.4 343.77 276.07 336.4 263.37 328.72 268.84 313.71 265.22 313.52 260.28 313.67 253.55 310.18 246.69 311.4 228.99 306.76 222.63 307.4 214.92 312.08 211.66" fill="#fff" stroke="#000206"/>
  <polygon points="231.9 339.27 227.01 339.55 217.95 327.52 207.33 321.06 220.08 309.03 212.98 296.35 223.9 285.58 234.02 280.36 244.51 282.64 253.82 281.52 271.12 281.92 275.58 282.71 278.42 290.92 290.85 303.28 289.47 314.25 280.28 318.05 284.72 323.03 282.69 327.27 287.37 333.08 285.06 337.95 284.68 347.64 275.17 350.17 273.21 358.11 268.44 361.73 267.25 366.66 263.04 372.65 244.95 373.77 234.39 371.76 234.56 361.21 226.66 352.72 231.34 346.32 231.9 339.27" fill="#fff" stroke="#000206"/>
  <polygon points="290.85 303.28 278.42 290.92 275.58 282.71 289.52 277.39 291.73 265.85 313.52 260.28 313.71 265.22 328.72 268.84 336.4 263.37 343.77 276.07 351.67 280.4 351.56 290.11 348.11 295.53 343.92 295.99 342.61 310.9 336.25 317.08 340.66 322.74 339.19 327.66 347.96 343.97 345.95 352.47 359.63 351.02 361.29 355.55 365.57 354.95 369.52 363.23 368.19 370.1 363.95 370.14 362.75 375.34 359.6 376 359.84 380.73 341.51 388.32 333.53 385.09 333.26 380.77 330.15 380.88 328.05 386.59 324.09 386.64 323.63 381.06 317.73 376.43 308.86 382.18 302.75 396.97 301.72 387.34 298.31 387.56 292.8 377.39 280.28 395.02 268.48 393.93 265.19 392.5 266.92 383.71 261.41 381.74 263.04 372.65 267.25 366.66 268.44 361.73 273.21 358.11 275.17 350.17 284.68 347.64 284.83 345.43 285.06 337.95 287.37 333.08 282.69 327.27 284.69 322.93 280.23 317.96 289.47 314.25 290.85 303.28" fill="#fff" stroke="#000206"/>
  <polygon points="383.77 299.24 387.41 294.82 389.51 280.86 406.72 280.98 408.84 284.91 403.96 288.97 412.19 296.66 417.81 293.09 423.7 297.85 443.51 285.09 447.33 296.5 438.95 303.26 440.26 306.8 441.54 306.73 452.67 300.98 452.83 294.59 459.99 289.17 477.16 290.13 479.64 299.15 473.29 301.3 476.54 307.31 484.85 313.88 483.74 321.87 475.08 324.45 474.64 330.8 482.4 337.07 484 346.61 491.09 350.33 488 354.32 487.64 363.46 482.26 363.72 477.45 367.89 465.65 368.89 454.42 373.96 446.97 371.32 446.59 376.85 454.26 380.33 453.45 388.06 446.29 385.3 439.15 386.43 435.87 388.75 431.84 389.9 426.45 398.49 421.34 398.72 418.25 402.4 422.88 404.95 420.66 408.44 413.29 408.86 410.21 412.58 414.73 416.72 419.15 418.08 423.05 423.93 420.32 426.94 417.3 425.66 413.04 429.75 403.84 422.91 395.35 426.09 400.83 417.32 388.14 421.06 381.3 417.75 367.91 419.37 368.41 416.19 362.56 414.9 359.67 420.01 351.19 415.93 350.94 411.2 346.63 408.31 341.51 388.32 359.84 380.73 359.6 376 362.75 375.34 363.95 370.14 368.19 370.1 369.52 363.23 365.57 354.95 361.29 355.55 359.63 351.02 345.95 352.47 347.96 343.97 339.19 327.66 340.66 322.74 336.25 317.08 342.61 310.9 343.92 295.99 348.11 295.53 352.56 300.17 363.54 301.4 374.16 290.89 383.77 299.24" fill="#fff" stroke="#000206"/>
  <path d="M218,391.29l-.2,2.9-4.49,3.64,1.67,8.48-7.32-.3-.44,2.19,4,3.84-2.59,8.86-8.28,1.2-.44,2.33-3.79,1.84L187.57,423,180,425.81l-8.65-.44-3.77,6.13-1.71-4-11.64,4.9L155,446.9l-6,5.25,12.4-.62.79,9.09,3.28,1.57-.24,7.61-11.08,9,.44,5.82-5.32-.7-1.41,12.29-15.21-.85L127.48,487l-20.3-8.91-2-4.28-4.55,4.46-5.79-2L99.26,466l-3.92-4.67-5,3.33-2.48-5.13-5.06-.29-1.18-3.4L89,454.58,96,449.86l7-8.89,7.23-18.76,6.69-35.44,1.52-5.75h9.9l-4.31-7.19-4.51,3.92c.16-.66,10.17-41.45,8-50.09l3.64-3.68.75,5.6,9,9.38,5.4,20-.86-19,7.09-.29,4.42,3.44.11,6.67,7,1.5,6.93,6.84,4.35-3.32,1.06-4.34,11-5.41-.11-6.66,6.91-1.84,4.78-11.95,8.24-4.5,10.62,6.46,9.2,12,4.68-.3-.49,7.06-4.68,6.4,7.9,8.49-.17,10.55-8.86,13.93.21,5.16Z" transform="translate(0.26 0.95)" fill="#fff" stroke="#000206"/>
  <polygon points="420.25 488.24 407.01 487.5 402.67 485.04 407.13 481.67 401.53 476.92 392.04 479.17 388.49 473.41 382.85 473.1 380.79 478.53 371.88 476.37 368.05 470.6 358.21 469.77 358.86 464.54 367.01 463.18 366.39 457.73 373.87 455.94 375.32 447.13 385.67 440.49 384.7 434.14 378.31 424.25 381.3 417.75 388.14 421.06 400.83 417.32 395.35 426.09 403.84 422.91 413.04 429.75 417.3 425.66 420.32 426.94 423.05 423.93 419.15 418.08 414.73 416.72 410.21 412.58 413.29 408.86 420.66 408.44 422.88 404.95 418.25 402.4 421.34 398.72 426.45 398.49 431.84 389.9 435.87 388.75 439.15 386.43 446.29 385.3 453.45 388.06 454.26 380.33 446.59 376.85 446.97 371.32 454.42 373.96 465.65 368.89 476.48 385.88 483.48 387.11 484.41 396.17 479.93 397.46 477.61 400.06 474.83 407.21 479.04 411.75 476.21 417.82 480.99 421.96 491.09 427.25 502.72 430.67 513.89 428.52 517.02 436.47 509.52 442.72 505.27 455.25 493.58 456.54 485.82 466.66 480.35 466.49 475.07 476.05 468.8 476.81 463.89 482.36 470.03 483.54 463.53 489.97 454.95 489.08 452.66 493.67 442.95 491.18 443.7 496.51 431.79 493.06 432.57 498.1 424.62 494.6 420.25 488.24" fill="#fff" stroke="#000206"/>
  <polygon points="521.37 497.25 518.57 513.21 514.63 511.38 508.85 514.89 499.65 517.14 492.62 528.97 492.66 534.43 489.23 537.06 489.8 543.81 496.22 544.63 490.8 552.38 496.22 553.2 493.23 560.11 502.23 561.72 496.75 567.52 500.5 571.31 499.06 574.87 507.51 575.35 514.41 581.84 519.93 575.49 522.82 554.27 522.48 549.25 529.47 542.66 530.04 524.06 526.19 512.04 526.44 497.54 521.19 496.89 521.37 497.25" fill="#fff" stroke="#000206" stroke-width="0.42"/>
  <polygon points="298.17 455.16 290.75 460.16 285.04 457.06 279.1 461.18 283.67 468.64 276.63 472.36 263.93 468.06 263.36 472.2 255.16 468.13 250.98 470.8 244.82 468.28 244.1 472.78 238.71 473.03 238.49 481.26 249.36 490.34 249.19 499.84 242.45 505.89 248.37 510.65 253.54 509.55 256.34 514.05 240.09 524.25 234.11 522.21 235.54 517.85 230.95 514.81 221.92 514.58 218.17 507.43 212.2 507.93 198.5 500.38 190.87 499.01 190.18 508.98 181.31 506.53 177.35 506.25 172.69 508.21 168.15 504.34 158.72 505.24 148 497.38 149.43 484.85 154.75 485.55 154.29 479.96 165.39 470.75 165.61 463.38 162.33 461.81 161.56 452.48 149.16 453.1 155.21 447.85 154.52 433.37 166.16 428.47 167.87 432.45 171.64 426.32 180.28 427 187.83 423.97 196.37 427.22 200.17 425.38 200.61 423.05 208.88 421.85 211.48 412.99 207.51 409.15 207.95 406.96 215.27 407.26 213.59 398.78 218.08 395.14 218.29 392.24 225.73 390.85 225.53 385.69 234.39 371.76 244.95 373.77 263.04 372.65 261.41 381.74 266.92 383.71 265.19 392.5 268.48 393.93 280.28 395.02 292.8 377.39 298.31 387.56 301.72 387.34 302.75 396.97 307.81 405.58 307.81 421.96 318.06 425.04 314.98 431.73 322.2 434.71 316.85 438.3 316.82 443.02 310 447.63 305.6 445.72 301.54 455.49 298.17 455.16" fill="#fff" stroke="#000206"/>
  <polygon points="227.15 339.56 230.14 339.37 227.14 339.54 227.15 339.56" fill="#fff" stroke="#000206"/>
  <polygon points="219.98 308.89 207.33 321.06 220.08 309.03 212.98 296.35 219.98 308.89" fill="#fff" stroke="#000206"/>
  <path d="M276.37,471.41l7-3.72-4.57-7.46,5.94-4.12,5.71,3.1,7.42-5,3.37.33,4.06-9.77,4.28,1.76,6.94-4.46,0-4.72,5.35-3.59-7.22-3,3.08-6.69L307.55,421V404.63L302.5,396l6.1-14.79,8.87-5.75,5.9,4.63.46,5.58,4-.05,2.1-5.71,3.11-.11.27,4.32,8,3.23,5.12,20,4.31,2.88.25,4.73,8.48,4.09L362.3,414l5.85,1.3-.5,3.17L381,416.8l-3,6.5,6.39,9.9,1,6.34-10.35,6.64L373.61,455l-7.48,1.79.74,5.6-8.27,1.21-.64,5.23-6.46-.64L349,463.05c-12.11-.68-19.39,11.31-19.76,11.94-2.79-.72-10.17,5.2-10.56,5.51-7.31-.68-11,2-11.18,2.16-11.15,6.08-10.93,22.18-10.91,23l1.24,14.78,3.24,2.13L305,528.1l-3.1,4-3.48-2.7-12.14-.12-5.51,6.07-4.85-3.6-6,4.93L262.65,531l-5.12-3.62-10.59,6.08-7.11-10.16,16.25-10.2-2.95-4.62-4.87,1.18-6.07-4.72,6.74-6.05.17-9.5-10.78-9.09.24-8.37,5.13-.08.87-4.52,6.16,2.51L255,467l8.26,4.12.27-4Z" transform="translate(0.26 0.95)" fill="#fff" stroke="#000206"/>
</svg>
