<svg id="Layer_1" data-name="Layer 1" xmlns="http://www.w3.org/2000/svg" viewBox="0 0 18 28">
  <title>ico-see3d</title>
  <polygon points="18 4.6 17.51 3.73 9.94 7 8.04 7 0.55 3.76 0 4.61 8 8.06 8.03 28 9.96 28 10 8.06 18 4.6" fill="#55a4c1"/>
  <polygon points="10 8.06 9.96 28 10 28 18 24 18 4.6 10 8.06" fill="#007ba9"/>
  <polygon points="0 24 8 28 8.03 28 8 8.06 0 4.61 0 24" fill="#007ba9"/>
  <polygon points="17.51 3.73 10.01 0 8.01 0 0.55 3.76 8.04 7 9.94 7 17.51 3.73" fill="#007ba9"/>
</svg>
