<svg id="Layer_1" data-name="Layer 1" xmlns="http://www.w3.org/2000/svg" viewBox="0 0 23 26">
  <title>ico-calendar</title>
  <path d="M21.23,26H1.77A1.78,1.78,0,0,1,0,24.2V4.47A1.78,1.78,0,0,1,1.77,2.68H3.54v.9a2.66,2.66,0,1,0,5.31,0v-.9h5.3v.9a2.66,2.66,0,1,0,5.31,0v-.9h1.77A1.78,1.78,0,0,1,23,4.47V24.2A1.78,1.78,0,0,1,21.23,26Zm0-17H1.77V24.2H21.23Zm-15,4.48H3.54V10.75H6.19Zm0,4.48H3.54V15.23H6.19Zm0,4.49H3.54V19.72H6.19Zm4.42-9H8V10.75h2.65Zm0,4.48H8V15.23h2.65Zm0,4.49H8V19.72h2.65Zm4.43-9H12.39V10.75H15Zm0,4.48H12.39V15.23H15Zm0,4.49H12.39V19.72H15Zm4.42-9H16.81V10.75h2.65Zm0,4.48H16.81V15.23h2.65Zm0,4.49H16.81V19.72h2.65Zm-2.68-17A1.75,1.75,0,0,1,15,3.61V1.76a1.74,1.74,0,1,1,3.48,0V3.61A1.75,1.75,0,0,1,16.78,5.37Zm-10.62,0A1.75,1.75,0,0,1,4.42,3.61V1.76a1.75,1.75,0,1,1,3.49,0V3.61A1.75,1.75,0,0,1,6.16,5.37Z" transform="translate(0 0.01)"/>
</svg>
