<svg id="Layer_1" data-name="Layer 1" xmlns="http://www.w3.org/2000/svg" viewBox="0 0 22.51 37.11">
  <title>ico-transport</title>
  <path d="M15.54,1.12A2.74,2.74,0,0,0,12.64,0a3,3,0,0,0-2.19,1.14A3,3,0,0,0,9.75,4a3.74,3.74,0,0,0,.92,1.51,5.65,5.65,0,0,0,1.67.58A4.06,4.06,0,0,0,15.54,5C16.49,4,16.18,2.23,15.54,1.12Z" transform="translate(-0.07 0.06)"/>
  <path d="M21.49,17c-.65-.12-1.43-1.12-1.95-1.52A10.71,10.71,0,0,1,17,12.5c-1-1.64-1.49-3.95-3.19-5A3.87,3.87,0,0,0,12.7,7.1a14.35,14.35,0,0,0-2,.11h0a11.71,11.71,0,0,0-2.3,1.15,3.39,3.39,0,0,0-.9.56C7.35,9,6.24,9.94,6.16,10c-.53.31-1,.68-1.56,1a6.51,6.51,0,0,0-1.36,1.12,1.33,1.33,0,0,0-.67.63,1.35,1.35,0,0,0-.48,1.11c0,1.86-1,3.78-.25,5.66.67,1.72,3.4,1,2.94-.64.14-.8.35-1.58.41-2.39,0-.37.3-1.54.34-1.74s.68-.58,1-.79a5.22,5.22,0,0,1,.57.27c0,1-.11,2-.11,3.07a4.47,4.47,0,0,0-.2,1c-1.08,2.28-1.41,4.87-2,7.28A19.86,19.86,0,0,1,.25,33.85c-.8.82,1.21,3.52,2.07,3.17,1.34-.55,2.18-1.9,3-3.08a43.13,43.13,0,0,0,2.57-4,22.82,22.82,0,0,0,1.54-4.1c.11-.39.24-1,.4-1.66a1.36,1.36,0,0,0,.41-.3,1.54,1.54,0,0,0,.31-.05,1.6,1.6,0,0,0,.51.09h.07c.56.63.93,1.56,1.4,2.21.78,1.07,2.54,2.8,2.93,4.09.64,2.14-.11,3.58.83,5.61a2.18,2.18,0,0,0,1.88,1c.82.51,1.76-.08,1.92-1.4.35-2.82.16-7.13-1.49-9.47-1.89-2.65-4.35-4.22-5.49-7.16a5.75,5.75,0,0,1,.14-.83c.15-.59.4-1.13.56-1.71a9.85,9.85,0,0,0,.29-1.84,1.33,1.33,0,0,0,.33-.24,19.07,19.07,0,0,0,1.36,1.93,21.82,21.82,0,0,0,2.72,2.46,4.88,4.88,0,0,0,2.22,1.35C22.58,20.21,23.39,17.32,21.49,17Z" transform="translate(-0.07 0.06)"/>
</svg>
