<svg id="Layer_1" data-name="Layer 1" xmlns="http://www.w3.org/2000/svg" viewBox="0 0 22.01 26">
  <title>ico-stopwatch</title>
  <path d="M22,14.84A11.09,11.09,0,0,1,11,26a11.16,11.16,0,0,1-.56-22.29V1.78H9.63A.88.88,0,0,1,8.75.89.88.88,0,0,1,9.63,0h2.64a.88.88,0,0,1,.88.89.88.88,0,0,1-.88.89h-.93V3.7A11.08,11.08,0,0,1,22,14.84ZM10.45,7.14v-2a9.58,9.58,0,0,0-6.8,3.42L5.1,10l-.63.63L3.1,9.24A9.91,9.91,0,0,0,1.32,14.9c0,.09,0,.22,0,.22H3.47V16H1.4a9.94,9.94,0,0,0,2,4.92l1.09-1.1.63.63L4,21.61a9.58,9.58,0,0,0,6.49,3.08V22.26h.89V24.7a9.59,9.59,0,0,0,6.66-3L16.75,20.4l.62-.63L18.58,21a10,10,0,0,0,2-5H18.38v-.89h2.3c0-.09,0-.13,0-.22a9.88,9.88,0,0,0-1.87-5.79l-1.45,1.47L16.75,10l1.51-1.54a9.65,9.65,0,0,0-6.92-3.32V7.14Zm.94,8h3.08a.45.45,0,0,1,0,.89H11a.44.44,0,0,1-.44-.44V9.37a.44.44,0,0,1,.88,0Z" fill-rule="evenodd"/>
</svg>
