<svg id="Layer_1" data-name="Layer 1" xmlns="http://www.w3.org/2000/svg" viewBox="0 0 67 66">
    <title>ico-loi</title>
    <path d="M35,0H33L0,24v2H67V24ZM34,20a4.81,4.81,0,0,1-4.62-4.62A4.53,4.53,0,0,1,33.94,11a4.65,4.65,0,0,1,4.68,4.37A4.81,4.81,0,0,1,34,20Z"/>
    <rect y="63.67" width="67" height="2.33"/>
    <rect x="3.22" y="58" width="60.75" height="2.61"/>
    <path d="M6.52,29H19v2.58H16.88V54.87L8.75,55c0-7.81,0-24,0-24H6.52Z"/>
    <path d="M48.52,29H61v2.58H58.88V54.87L50.75,55c0-7.81,0-24,0-24H48.52Z"/>
    <path d="M27.52,29H40v2.58H37.88V54.87L29.75,55c0-7.81,0-24,0-24H27.52Z"/>
</svg>
