<svg id="Layer_1" data-name="Layer 1" xmlns="http://www.w3.org/2000/svg" viewBox="0 0 23 26.12">
  <title>ico-calendar2</title>
  <path d="M21.23,26H1.77A1.78,1.78,0,0,1,0,24.22H0V4.48A1.78,1.78,0,0,1,1.77,2.69H3.54v.9a2.66,2.66,0,1,0,5.31.33,1.82,1.82,0,0,0,0-.33v-.9h5.3v.9a2.66,2.66,0,0,0,5.31.33,1.82,1.82,0,0,0,0-.33v-.9h1.77A1.78,1.78,0,0,1,23,4.48h0V24.21A1.78,1.78,0,0,1,21.24,26Zm0-17H1.77v15.2H21.23ZM16.82,5.37A1.75,1.75,0,0,1,15,3.69V1.77a1.74,1.74,0,0,1,3.48,0h0V3.62a1.75,1.75,0,0,1-1.7,1.76ZM6.2,5.37A1.75,1.75,0,0,1,4.42,3.65V1.77a1.75,1.75,0,1,1,3.49-.26,1.13,1.13,0,0,1,0,.26V3.62A1.75,1.75,0,0,1,6.17,5.38h0Z" transform="translate(0 0.11)"/>
</svg>
