<svg id="Layer_2" data-name="Layer 2" xmlns="http://www.w3.org/2000/svg" viewBox="0 0 30.31 23.9">
  <title>ICO-PHONE</title>
  <path d="M311.21,385.49a15.14,15.14,0,0,0-9.32,0v3.11a1,1,0,0,1-.55.89,18.32,18.32,0,0,0-3,2.12c-.42.36-5,.39-5.41,0-.83-1-1.86-2.46-1.47-3.86,1.61-5.87,27.37-6.82,30,0a5.13,5.13,0,0,1-.43,3.87c-.39.39-6,.4-6.42,0h0a11.67,11.67,0,0,0-2.92-2.12,1,1,0,0,1-.55-.9Z" transform="translate(-291.41 -382.99)"/>
  <rect x="7.75" y="9.1" width="2.8" height="2.8"/>
  <rect x="19.75" y="21.1" width="2.8" height="2.8"/>
  <rect x="19.75" y="15.1" width="2.8" height="2.8"/>
  <rect x="13.75" y="15.1" width="2.8" height="2.8"/>
  <rect x="13.75" y="21.1" width="2.8" height="2.8"/>
  <rect x="7.75" y="21.1" width="2.8" height="2.8"/>
  <rect x="7.75" y="15.1" width="2.8" height="2.8"/>
  <rect x="19.75" y="9.1" width="2.8" height="2.8"/>
  <rect x="13.75" y="9.1" width="2.8" height="2.8"/>
</svg>
