<svg id="_pin_event" data-name=" pin event" xmlns="http://www.w3.org/2000/svg" viewBox="0 0 41 54">
  <title>ico-pin-brown2</title>
  <path id="Pin_copie" data-name="Pin copie" d="M22.5,2A20.54,20.54,0,0,1,43,22.57h0C43,33.93,26.34,56,22.5,56S2,33.93,2,22.57A20.54,20.54,0,0,1,22.5,2Z" transform="translate(-2 -2)" fill="#524746" fill-rule="evenodd"/>
  <path id="Center" d="M22.5,7.14A15.43,15.43,0,1,1,7.13,22.62v-.05A15.4,15.4,0,0,1,22.5,7.14Z" transform="translate(-2 -2)" fill="#fff" fill-rule="evenodd"/>
  <path id="calendrier" d="M30.64,32H14.36A1.36,1.36,0,0,1,13,30.64h0V16.39A1.35,1.35,0,0,1,14.36,15h1.35v.67a2,2,0,0,0,4.07,0V15h5.43v.68a2,2,0,0,0,4.07,0V15h1.36A1.35,1.35,0,0,1,32,16.39h0V30.64A1.36,1.36,0,0,1,30.64,32Zm0-12.21H14.36V30.64H30.64Zm-3.41-2.72a1.34,1.34,0,0,1-1.34-1.33h0v-1.4a1.34,1.34,0,1,1,2.67,0h0v1.4a1.33,1.33,0,0,1-1.33,1.33Zm-9.5,0a1.34,1.34,0,0,1-1.34-1.33h0v-1.4a1.34,1.34,0,1,1,2.67,0h0v1.4a1.33,1.33,0,0,1-1.33,1.33Z" transform="translate(-2 -2)" fill="#14b0e2" fill-rule="evenodd"/>
</svg>
