<svg id="Layer_1" data-name="Layer 1" xmlns="http://www.w3.org/2000/svg" viewBox="0 0 61 54">
    <title>capacite</title>
    <path d="M12,45H1L0,44V27l1-1H12l1,1V44Z" transform="translate(0 0)"/>
    <path d="M60,37H49l-1-1V18l1-1H60l1,1V36Z" transform="translate(0 0)"/>
    <path d="M36,28H25l-1-1V10l1-1H36l1,1V27Z" transform="translate(0 0)"/>
    <path d="M5.51,0h2L9,1.5V24H4V1.5Z" transform="translate(0 0)"/>
    <path d="M29.51,0h2L33,1.5V6.94H28V1.5Z" transform="translate(0 0)"/>
    <path d="M7.51,54h-2L4,52.5V47.06H9V52.5Z" transform="translate(0 0)"/>
    <path d="M53.49,0h2L57,1.5V15H52V1.5Z" transform="translate(0 0)"/>
    <path d="M55.47,54h-2L52,52.5V39h5V52.5Z" transform="translate(0 0)"/>
    <path d="M31.49,54h-2L28,52.5V30h5V52.5Z" transform="translate(0 0)"/>
</svg>
