<?xml version="1.0" standalone="no"?>
<!DOCTYPE svg PUBLIC "-//W3C//DTD SVG 1.1//EN" "http://www.w3.org/Graphics/SVG/1.1/DTD/svg11.dtd" >
<svg xmlns="http://www.w3.org/2000/svg">
<metadata></metadata>
<defs>
<font id="helvetica_neue_lt_std46LtIt" horiz-adv-x="1138" >
<font-face units-per-em="2048" ascent="1462" descent="-586" />
<missing-glyph horiz-adv-x="569" />
<glyph horiz-adv-x="0" />
<glyph unicode="&#xd;" horiz-adv-x="0" />
<glyph horiz-adv-x="0" />
<glyph horiz-adv-x="0" />
<glyph unicode=" "  horiz-adv-x="569" />
<glyph unicode="&#x09;" horiz-adv-x="569" />
<glyph unicode="&#xa0;" horiz-adv-x="569" />
<glyph unicode="!" horiz-adv-x="569" d="M47 0l47 217h174l-49 -217h-172zM172 365l109 643l98 454h137l-98 -456l-168 -641h-78z" />
<glyph unicode="&#x22;" horiz-adv-x="757" d="M281 965v497h118v-497h-118zM537 965v497h118v-497h-118z" />
<glyph unicode="#" d="M72 457l20 92h217l45 319h-225l21 93h217l63 454h102l-63 -454h289l63 454h103l-64 -454h215l-20 -93h-207l-45 -319h215l-21 -92h-206l-64 -457h-102l63 457h-289l-63 -457h-103l64 457h-225zM412 549h288l45 319h-288z" />
<glyph unicode="$" d="M-45 481h137q-4 -90 14.5 -156.5t58.5 -112.5t97 -73.5t131 -38.5l129 607l-98 28q-129 37 -209 118t-80 222q0 117 48 197t126 129t177.5 70.5t201.5 21.5l23 106h92l-25 -114q88 -12 164 -43t129 -85t81 -133t22 -188h-140q-2 164 -72.5 239t-207.5 91l-119 -561 l41 -12q76 -23 146.5 -49.5t126 -67.5t88 -102.5t32.5 -153.5q0 -53 -21.5 -130t-83 -147.5t-172 -121t-288.5 -50.5h-24.5t-22.5 2l-37 -176h-92l41 187q-96 12 -175 49t-133.5 98.5t-83 148.5t-22.5 201zM274 1081q0 -59 21.5 -99t55.5 -67.5t78 -45t91 -29.5l29 -9 l115 543q-72 0 -141.5 -15.5t-125 -50t-89.5 -90t-34 -137.5zM483 90q10 -2 31 -2q72 0 145.5 18.5t134 56.5t98.5 97t38 141q0 72 -29 118t-75 77t-103 49.5t-115 34.5z" />
<glyph unicode="%" horiz-adv-x="1705" d="M137 958q0 86 23.5 172.5t71 157t119 114.5t167.5 44q127 0 201 -80t74 -205q0 -86 -22.5 -173t-70 -157.5t-118 -115.5t-168.5 -45q-135 0 -206 80.5t-71 207.5zM213 -63l1167 1544h113l-1169 -1544h-111zM246 954q0 -76 42 -134t128 -58q72 0 123 39t82.5 97t47 128 t15.5 129q0 86 -39 142.5t-133 56.5q-70 0 -120 -41t-83 -101.5t-48 -130t-15 -127.5zM913 258q0 86 24 172t71 156.5t118.5 114.5t167.5 44q127 0 201 -79.5t74 -204.5q0 -86 -22.5 -173t-69.5 -158t-118 -115t-169 -44q-135 0 -206 80t-71 207zM1020 254q0 -76 42 -134.5 t128 -58.5q72 0 123 39t82.5 97.5t47 128t15.5 129.5q0 86 -39 142t-133 56q-70 0 -120 -41t-82.5 -101t-48 -130t-15.5 -127z" />
<glyph unicode="&#x26;" horiz-adv-x="1251" d="M35 344q0 94 38 166t99 125t138 95t155 79q-55 82 -97 160t-42 180q0 72 27.5 129t74.5 98t111.5 63.5t138.5 22.5q61 0 119.5 -17.5t102.5 -51t71.5 -82.5t27.5 -115q0 -80 -34.5 -143.5t-89 -113.5t-121 -90t-127.5 -75l262 -407q43 53 69.5 128.5t42.5 149.5h129 q-23 -104 -63.5 -198.5t-110.5 -184.5l170 -262h-145l-111 172q-78 -96 -186.5 -148.5t-237.5 -52.5q-90 0 -165.5 23.5t-130 71t-85 117t-30.5 161.5zM164 336q0 -53 21.5 -100.5t58.5 -82t87 -55t105 -20.5q119 0 208 46t167 142l-289 453q-59 -29 -122.5 -63.5t-116 -80 t-86 -104.5t-33.5 -135zM455 1145q0 -37 11 -75t28.5 -73.5t37 -70.5t37.5 -66q43 25 95.5 54.5t98.5 67.5t76.5 85t30.5 104q0 92 -57 137.5t-139 45.5q-43 0 -83 -15.5t-71 -43t-48 -66.5t-17 -84z" />
<glyph unicode="'" horiz-adv-x="569" d="M313 965v497h119v-497h-119z" />
<glyph unicode="(" horiz-adv-x="530" d="M100 385q8 162 48 313.5t105.5 290.5t154 265t192.5 239h107q-119 -145 -210 -289.5t-152.5 -301.5t-93.5 -328t-32 -367q0 -154 28.5 -302.5t71.5 -293.5h-88q-68 190 -104.5 380.5t-26.5 393.5z" />
<glyph unicode=")" horiz-adv-x="530" d="M-207 -389q117 143 208 288.5t152.5 301t93.5 326.5t32 368q0 154 -29 303.5t-72 294.5h88q68 -190 105 -381.5t26 -394.5q-8 -164 -48 -314.5t-105.5 -289t-152.5 -264t-191 -238.5h-107z" />
<glyph unicode="*" horiz-adv-x="720" d="M147 1262l43 71l209 -116l54 245h79l-51 -254l238 49l10 -77l-235 -52l122 -208l-77 -39l-121 217l-176 -189l-58 56l170 184z" />
<glyph unicode="+" horiz-adv-x="1228" d="M100 461v108h461v461h109v-461h460v-108h-460v-461h-109v461h-461z" />
<glyph unicode="," horiz-adv-x="569" d="M-23 -279l17 82q35 10 58.5 31t38.5 46.5t24.5 56t17.5 63.5h-86l49 217h172l-67 -285q-12 -49 -29.5 -82.5t-44.5 -58t-63.5 -41t-86.5 -29.5z" />
<glyph unicode="-" horiz-adv-x="757" d="M78 504l24 119h514l-24 -119h-514z" />
<glyph unicode="." horiz-adv-x="569" d="M47 0l47 217h174l-49 -217h-172z" />
<glyph unicode="/" horiz-adv-x="681" d="M-160 -29l840 1522h121l-840 -1522h-121z" />
<glyph unicode="0" d="M51 500q0 90 15.5 195.5t49.5 210t84 202.5t120.5 173t160.5 120t201 45q115 0 192.5 -40t125 -109.5t67.5 -161t20 -191.5q0 -96 -15 -205.5t-47 -217t-83 -208t-122.5 -176.5t-166 -121t-211.5 -45q-115 0 -190.5 46t-120.5 120t-62.5 169t-17.5 194zM180 459 q0 -74 13.5 -142.5t47 -122t90 -85t142.5 -31.5q88 0 158.5 46t125 120.5t92.5 170t62.5 194t35.5 189t11 160.5q0 74 -12 141.5t-45 121t-89 85t-144 31.5t-158 -46t-124 -121.5t-93 -170t-63.5 -192.5t-37 -189.5t-12.5 -158.5z" />
<glyph unicode="1" d="M274 1075l27 103q66 10 131.5 29.5t125.5 50t110.5 73.5t87.5 103h98l-307 -1434h-129l254 1190q-94 -49 -193.5 -73.5t-204.5 -41.5z" />
<glyph unicode="2" d="M-20 0q6 115 50 202t112.5 155.5t154.5 123t174 103.5t173 98t151.5 106.5t106.5 128t40 164.5q0 66 -24.5 114t-64.5 80t-94 47t-112 15q-82 0 -146.5 -30.5t-109.5 -83t-69.5 -122t-28.5 -147.5h-129q4 106 43 196.5t103.5 156t153.5 102.5t195 37q84 0 159 -23.5 t131.5 -70.5t89 -116t32.5 -159q0 -96 -33.5 -172t-91 -136t-132.5 -110.5t-157 -95.5q-80 -45 -161.5 -91t-154.5 -98t-129 -113.5t-85 -141.5h801l-23 -119h-925z" />
<glyph unicode="3" d="M18 455h129q-4 -84 12.5 -154t56.5 -119t101.5 -76.5t145.5 -27.5q80 0 149.5 25.5t122.5 72.5t84 112.5t31 145.5q0 74 -25.5 124t-69.5 82t-102.5 45t-122.5 13h-69l22 109h84q66 0 132.5 10t119.5 41t86 85t33 144q0 61 -23.5 108.5t-61.5 78.5t-88 47t-106 16 q-158 0 -245.5 -92t-112.5 -248h-129q18 102 57 185.5t99.5 141.5t143.5 90t192 32q80 0 152.5 -22.5t128.5 -66.5t89 -110.5t33 -154.5q0 -135 -85 -228.5t-216 -115.5v-5q106 -27 159.5 -108.5t53.5 -192.5q0 -113 -42 -200.5t-112.5 -147t-162 -91.5t-189.5 -32 q-127 0 -215 36t-142.5 99.5t-78 152.5t-19.5 196z" />
<glyph unicode="4" d="M0 356l20 121l879 957h115l-209 -969h217l-25 -109h-215l-77 -356h-130l78 356h-653zM147 465h529l162 743l-4 4z" />
<glyph unicode="5" d="M31 406h129q-14 -156 68.5 -242t236.5 -86q92 0 166 34.5t127 94t81.5 136.5t28.5 163q0 150 -77.5 243t-235.5 93q-96 0 -181 -37t-136 -129l-115 10l235 729h732l-29 -119h-627l-153 -458h4q59 59 143 85.5t172 26.5q92 0 166 -32.5t125 -89t78.5 -134.5t27.5 -166 q0 -123 -38.5 -225t-111.5 -176t-173.5 -115t-222.5 -41q-100 0 -180.5 30t-135.5 86t-82.5 137t-21.5 182z" />
<glyph unicode="6" d="M74 453q0 145 33.5 317t109.5 324q39 76 88 140t111.5 111.5t138.5 74t166 26.5q184 0 290.5 -92t106.5 -283h-129q-8 266 -276 266q-117 0 -198 -61.5t-136 -153.5t-90 -197.5t-58 -193.5h5q59 98 159.5 150.5t216.5 52.5q94 0 170 -34t129.5 -92t82 -138t28.5 -170 q0 -117 -38 -213.5t-106.5 -167t-165 -109.5t-212.5 -39q-109 0 -190 37t-133 101.5t-77.5 152.5t-25.5 191zM203 416q0 -70 21.5 -131.5t61.5 -107.5t98 -72.5t132 -26.5q92 0 163 37t119 98t71.5 140t23.5 163q0 72 -24.5 129t-68.5 97t-103.5 61.5t-129.5 21.5 q-84 0 -150.5 -34.5t-114.5 -92t-73.5 -131t-25.5 -151.5z" />
<glyph unicode="7" d="M207 0q59 199 140 364.5t183 329.5t221 314.5t255 287.5h-781l29 119h915l-26 -110q-156 -154 -282 -321t-226 -337q-98 -170 -169 -335t-116 -312h-143z" />
<glyph unicode="8" d="M37 377q0 86 29.5 156.5t80 122t120 83t149.5 39.5v4q-96 31 -150.5 110t-54.5 177q0 90 36 159.5t95 118t137 74t162 25.5q82 0 159 -19.5t136 -60.5t96 -106.5t37 -159.5q0 -68 -22.5 -126.5t-63.5 -103.5t-96.5 -74.5t-120.5 -39.5v-2q119 -35 178.5 -128t59.5 -212 q0 -106 -44.5 -188.5t-116 -138.5t-163.5 -86t-188 -30q-92 0 -174 24.5t-144.5 75t-99.5 126t-37 180.5zM166 375q0 -78 26.5 -133.5t71.5 -92t106.5 -54t133.5 -17.5q78 0 145.5 23.5t117.5 67.5t78.5 107.5t28.5 143.5t-27.5 134t-74.5 88t-111.5 49.5t-138.5 15.5 t-139.5 -24t-113.5 -67t-75.5 -104t-27.5 -137zM340 1063q0 -63 23.5 -110.5t63.5 -78t92 -45t112 -14.5q63 0 119.5 17.5t98.5 53.5t66.5 87t24.5 119q0 63 -22.5 110t-62.5 77t-93.5 44t-112.5 14q-61 0 -116.5 -18.5t-98.5 -53t-68.5 -86t-25.5 -116.5z" />
<glyph unicode="9" d="M16 344h129q8 -266 277 -266q117 0 197.5 61.5t136 153.5t90.5 197.5t57 193.5h-4q-59 -98 -159.5 -150.5t-217.5 -52.5q-94 0 -170 34t-129 92.5t-81.5 138t-28.5 169.5q0 117 37.5 214.5t106.5 168t165 109.5t213 39q109 0 189.5 -37t133 -101.5t78 -153.5t25.5 -191 q0 -145 -34 -317.5t-109 -323.5q-39 -76 -88.5 -139.5t-112 -110.5t-138 -74t-165.5 -27q-184 0 -291 91.5t-107 281.5zM242 899q0 -72 24.5 -129t68.5 -97t103.5 -61.5t128.5 -21.5q82 0 149.5 34.5t116 92t74 131.5t25.5 151q0 70 -21.5 131.5t-61.5 107.5t-98.5 72.5 t-132.5 26.5q-92 0 -162.5 -36.5t-118.5 -98t-71.5 -140.5t-23.5 -163z" />
<glyph unicode=":" horiz-adv-x="569" d="M47 0l47 217h174l-49 -217h-172zM231 807l48 217h174l-50 -217h-172z" />
<glyph unicode=";" horiz-adv-x="569" d="M-23 -279l17 82q35 10 58.5 31t38.5 46.5t24.5 56t17.5 63.5h-86l49 217h172l-67 -285q-12 -49 -29.5 -82.5t-44.5 -58t-63.5 -41t-86.5 -29.5zM231 807l48 217h174l-50 -217h-172z" />
<glyph unicode="&#x3c;" horiz-adv-x="1228" d="M94 463v110l1041 480v-113l-914 -422l914 -422v-110z" />
<glyph unicode="=" horiz-adv-x="1228" d="M100 262v109h1030v-109h-1030zM100 666v108h1030v-108h-1030z" />
<glyph unicode="&#x3e;" horiz-adv-x="1228" d="M94 -14v110l914 422l-914 422v113l1041 -480v-110z" />
<glyph unicode="?" horiz-adv-x="1099" d="M178 1010q4 111 40 199.5t98.5 152t151.5 97.5t200 34q78 0 149.5 -21.5t126.5 -64.5t88 -107.5t33 -150.5q0 -84 -26.5 -149.5t-72.5 -120t-105.5 -99.5t-123.5 -86q-53 -35 -87 -66.5t-57.5 -69.5t-37.5 -83t-27 -102h-129q12 88 36 149.5t60.5 108.5t88 87t118.5 87 q43 29 84 63.5t75 75.5t54.5 87t20.5 99q0 125 -76 189.5t-198 64.5q-80 0 -143.5 -28.5t-108.5 -79.5t-71 -118.5t-32 -147.5h-129zM301 0l47 217h174l-49 -217h-172z" />
<glyph unicode="@" horiz-adv-x="1638" d="M96 737q0 160 58.5 298.5t161 239.5t238.5 159.5t294 58.5q147 0 274 -46t220.5 -131t146.5 -202t53 -258q0 -123 -42 -231.5t-109.5 -189.5t-152.5 -127t-171 -46q-53 0 -92 35t-45 102h-4q-47 -49 -115 -92t-145 -43q-63 0 -113.5 23.5t-85.5 64.5t-53.5 94.5 t-18.5 114.5q0 106 35 212t98.5 190t153.5 137t199 53q68 0 125 -40t92 -132l51 133h108l-196 -590q-10 -33 -17.5 -63.5t-5.5 -54t13.5 -38t35.5 -14.5q68 0 131.5 47.5t110.5 121t76 163.5t29 176q0 127 -46.5 227.5t-126 169t-185 105.5t-224.5 37q-143 0 -262 -53.5 t-205 -144.5t-133 -215t-47 -265q0 -139 49 -260t136 -210t207 -140.5t259 -51.5q76 0 150.5 18.5t144.5 54.5t129 86t104 114h105q-47 -84 -115.5 -151.5t-151.5 -115t-176.5 -72t-189.5 -24.5q-166 0 -305 59.5t-240.5 162t-158 242.5t-56.5 302zM524 571q0 -92 48.5 -145 t121.5 -53q72 0 133.5 50t107.5 122.5t72.5 156.5t26.5 152q0 37 -14 70.5t-36.5 60.5t-51.5 43t-60 16q-78 0 -142 -47t-110.5 -117.5t-71 -153.5t-24.5 -155z" />
<glyph unicode="A" horiz-adv-x="1290" d="M-152 0l893 1462h152l266 -1462h-145l-74 455h-668l-270 -455h-154zM342 573h578l-125 770h-4z" />
<glyph unicode="B" horiz-adv-x="1366" d="M10 0l318 1462h567q82 0 154.5 -17.5t128 -57t87 -103t31.5 -156.5q0 -72 -22.5 -133t-64.5 -109t-100 -79t-130 -43v-4q115 -14 182.5 -100.5t67.5 -200.5q0 -129 -49.5 -217t-130 -141.5t-187 -77t-221.5 -23.5h-631zM176 119h496q76 0 150.5 18.5t134 57t96.5 100 t37 147.5q0 80 -29 130.5t-77 80t-110.5 39.5t-130.5 10h-440zM330 821h461q70 0 136 17.5t117.5 54.5t82 92t30.5 129q0 61 -20.5 105.5t-56.5 72t-84 39.5t-103 12h-451z" />
<glyph unicode="C" horiz-adv-x="1441" d="M70 592q0 174 53 337t155.5 288.5t250 200.5t335.5 75q115 0 214.5 -31.5t172 -93t114.5 -154t44 -215.5h-139q-4 186 -115 280.5t-293 94.5q-166 0 -287.5 -68.5t-203.5 -180t-122 -254t-40 -291.5q0 -113 32.5 -203t95 -154.5t152 -99.5t203.5 -35q88 0 166 28.5 t142.5 82t112.5 129t75 172.5h139q-25 -113 -78 -209t-135 -167t-192.5 -112t-251.5 -41q-143 0 -255 45t-188.5 127t-116.5 196t-40 253z" />
<glyph unicode="D" horiz-adv-x="1402" d="M10 0l318 1462h471q158 0 264 -42t171.5 -118.5t93.5 -185t28 -239.5q0 -172 -51.5 -331t-152.5 -281t-250.5 -193.5t-346.5 -71.5h-545zM176 119h352q182 0 312.5 65.5t214.5 174t123 251t39 293.5q0 440 -441 440h-334z" />
<glyph unicode="E" horiz-adv-x="1175" d="M10 0l312 1462h981l-27 -119h-840l-112 -528h784l-27 -119h-782l-123 -577h860l-26 -119h-1000z" />
<glyph unicode="F" horiz-adv-x="1099" d="M10 0l314 1462h936l-25 -119h-797l-112 -528h706l-22 -119h-711l-149 -696h-140z" />
<glyph unicode="G" horiz-adv-x="1517" d="M70 582q0 176 51 340.5t151.5 291.5t249 203t344.5 76q276 0 424 -126t156 -355h-139q-4 92 -37 159.5t-92.5 112.5t-141.5 67.5t-182 22.5q-145 0 -264 -67.5t-203 -177t-131 -251t-47 -288.5q0 -113 29.5 -205t89 -158.5t148.5 -102.5t206 -36q121 0 220 41t174 112.5 t123 170t67 213.5h-504l29 118h624l-153 -743h-95l25 246h-4q-92 -145 -225.5 -210t-305.5 -65q-141 0 -250.5 43t-184.5 122t-113.5 191.5t-38.5 254.5z" />
<glyph unicode="H" horiz-adv-x="1441" d="M10 0l312 1462h139l-135 -635h845l136 635h139l-311 -1462h-140l152 709h-846l-151 -709h-140z" />
<glyph unicode="I" horiz-adv-x="454" d="M10 0l309 1462h140l-309 -1462h-140z" />
<glyph unicode="J" horiz-adv-x="1024" d="M-39 303q0 86 19 166h137q-8 -45 -13.5 -90t-5.5 -90q0 -55 20.5 -94t55.5 -62.5t81 -34t97 -10.5q80 0 133.5 27.5t89 74t56 105.5t35.5 125l223 1042h139l-233 -1093q-20 -96 -54 -170t-88.5 -124t-130.5 -77t-180 -27q-82 0 -151.5 18.5t-121 58.5t-80 102.5 t-28.5 152.5z" />
<glyph unicode="K" horiz-adv-x="1327" d="M10 0l312 1462h139l-168 -780l4 -4l944 784h195l-750 -610l522 -852h-159l-465 766l-326 -260l-108 -506h-140z" />
<glyph unicode="L" horiz-adv-x="1099" d="M10 0l316 1462h139l-289 -1343h809l-29 -119h-946z" />
<glyph unicode="M" horiz-adv-x="1744" d="M4 0l318 1462h202l228 -1312l802 1312h203l-313 -1462h-137l301 1323h-4l-809 -1323h-140l-235 1343h-4l-277 -1343h-135z" />
<glyph unicode="N" horiz-adv-x="1441" d="M0 0l315 1462h158l584 -1306h4l270 1306h135l-319 -1462h-154l-583 1307h-4l-273 -1307h-133z" />
<glyph unicode="O" horiz-adv-x="1517" d="M70 592q0 174 53 337t155.5 288.5t250 200.5t335.5 75q139 0 252 -44t191.5 -124t120.5 -193.5t42 -250.5q0 -178 -52 -343t-154.5 -291t-251.5 -201t-342 -75q-143 0 -255 45t-188.5 127t-116.5 196t-40 253zM209 580q0 -113 32.5 -203t95 -154.5t152 -99.5t203.5 -35 q150 0 267.5 67.5t200.5 175t127 244t44 271.5q0 113 -27.5 210t-86 167.5t-146.5 110.5t-209 40q-166 0 -287.5 -68.5t-203.5 -180t-122 -254t-40 -291.5z" />
<glyph unicode="P" horiz-adv-x="1290" d="M10 0l316 1462h589q82 0 154 -24.5t124 -70.5t82 -113.5t30 -151.5q0 -115 -38 -203t-104.5 -148.5t-159 -92t-202.5 -31.5h-516l-135 -627h-140zM311 745h494q76 0 141.5 23t114.5 66t76.5 105t27.5 142q0 74 -21.5 124t-60.5 81t-93 44t-122 13h-428z" />
<glyph unicode="Q" horiz-adv-x="1517" d="M70 592q0 174 53 337t155.5 288.5t250 200.5t335.5 75q139 0 252 -44t191.5 -124t120.5 -193.5t42 -250.5q0 -227 -83.5 -427t-243.5 -327l186 -172l-82 -84l-205 190q-158 -90 -372 -90q-143 0 -255 45t-188.5 127t-116.5 196t-40 253zM209 580q0 -113 32.5 -203 t95 -154.5t152 -99.5t203.5 -35q72 0 135.5 17.5t118.5 48.5l-164 151l80 84l185 -172q68 53 121 125t89.5 154t55 171t18.5 179q0 113 -27.5 210t-86 167.5t-146.5 110.5t-209 40q-166 0 -287.5 -68.5t-203.5 -180t-122 -254t-40 -291.5z" />
<glyph unicode="R" horiz-adv-x="1327" d="M10 0l312 1462h622q184 0 283.5 -92t99.5 -272q0 -80 -27.5 -150.5t-76.5 -124t-118 -86t-149 -39.5v-4q104 -23 145.5 -92.5t41.5 -169.5q0 -78 -10.5 -153.5t-10.5 -151.5q0 -27 4 -65.5t21 -61.5h-143q-6 4 -10.5 25.5t-6.5 47t-3 48t-1 29.5q0 66 10.5 131t10.5 131 q0 104 -44.5 170.5t-156.5 66.5h-516l-137 -649h-140zM313 768h494q80 0 148.5 19.5t120.5 59.5t82 99.5t30 140.5q0 129 -57.5 192.5t-192.5 63.5h-502z" />
<glyph unicode="S" horiz-adv-x="1290" d="M23 481h139q-1 -18 -1 -36q-1 -83 23 -145q28 -75 84 -122t135.5 -68.5t180.5 -21.5q72 0 145.5 18.5t134 56.5t98 97t37.5 141q0 78 -33.5 126t-87 79t-117 49.5t-124.5 36.5l-143 43q-129 39 -209 119t-80 221q0 111 44 189.5t116.5 129t166 75t191.5 24.5 q111 0 209 -23.5t168.5 -78t109.5 -141.5q34 -75 34 -181q0 -16 -1 -33h-139q0 96 -25.5 161t-75 104.5t-121 56t-165.5 16.5q-68 0 -134.5 -16.5t-119.5 -52t-86 -91t-33 -133.5q0 -59 21.5 -98t55.5 -66.5t78 -45t91 -31.5l155 -47q76 -23 147 -49.5t126 -67.5t88 -102.5 t33 -153.5q0 -53 -21.5 -130t-83 -147.5t-172 -121t-289.5 -50.5q-123 0 -226 30t-178 92.5t-114 158.5q-33 81 -33 189q0 20 1 40z" />
<glyph unicode="T" d="M141 1343l25 119h1143l-25 -119h-502l-293 -1343h-139l293 1343h-502z" />
<glyph unicode="U" horiz-adv-x="1441" d="M98 389q0 23 2 53.5t11 65.5l196 954h139l-194 -930q-10 -59 -14 -126v-11q0 -152 106 -228q110 -79 293 -79q199 0 316.5 99.5t156.5 285.5l207 989h139l-209 -999q-53 -258 -216 -375t-413 -117q-96 0 -189 22.5t-167 72t-119 129t-45 194.5z" />
<glyph unicode="V" horiz-adv-x="1214" d="M131 1462h143l187 -1343h4l749 1343h152l-844 -1462h-162z" />
<glyph unicode="W" horiz-adv-x="1857" d="M145 1462h140l75 -1300h5l622 1300h168l100 -1288h5l598 1288h145l-705 -1462h-151l-96 1329h-4l-639 -1329h-154z" />
<glyph unicode="X" horiz-adv-x="1175" d="M-137 0l669 762l-360 700h154l303 -614l530 614h166l-635 -723l381 -739h-147l-326 651l-573 -651h-162z" />
<glyph unicode="Y" horiz-adv-x="1175" d="M135 1462h148l329 -741l613 741h170l-733 -872l-130 -590h-141l133 604z" />
<glyph unicode="Z" horiz-adv-x="1175" d="M-100 0l26 123l1164 1220h-889l26 119h1055l-25 -116l-1169 -1227h975l-27 -119h-1136z" />
<glyph unicode="[" horiz-adv-x="493" d="M-55 -389l397 1882h334l-23 -109h-200l-359 -1665h199l-21 -108h-327z" />
<glyph unicode="\" horiz-adv-x="681" d="M-117 1493h119l842 -1522h-121z" />
<glyph unicode="]" horiz-adv-x="493" d="M-150 -389l23 108h199l358 1665h-199l21 109h330l-400 -1882h-332z" />
<glyph unicode="^" horiz-adv-x="1228" d="M90 487l471 928h107l471 -928h-117l-410 799l-403 -799h-119z" />
<glyph unicode="_" horiz-adv-x="1024" d="M0 -152h1024v-102h-1024v102z" />
<glyph unicode="`" horiz-adv-x="378" d="M137 1493h152l168 -295h-103z" />
<glyph unicode="a" horiz-adv-x="1062" d="M-16 262q0 84 30.5 141.5t80.5 95.5t115.5 58.5t137.5 32.5q51 8 98.5 11t90.5 5t79.5 4t67.5 11q63 16 95 59t32 147q0 47 -21.5 77t-53 46.5t-71.5 22.5t-77 6q-61 0 -116.5 -12.5t-100.5 -40t-75 -73.5t-40 -112h-129q12 90 52 156t99.5 108t134 62t160.5 20 q53 0 118 -10t120 -36.5t92 -72.5t37 -116q0 -39 -7 -86t-18.5 -95t-22.5 -94.5t-18 -80.5q-18 -90 -31.5 -147.5t-21.5 -96.5t-12 -63.5t-4 -49.5q0 -29 22.5 -36t44.5 -7q14 0 25.5 1t26.5 3l-19 -100q-23 -4 -51.5 -7t-54.5 -3q-53 0 -82 29.5t-31 82.5q0 14 1 28.5 t3 29.5l-4 4q-55 -92 -155.5 -142.5t-211.5 -50.5q-72 0 -133 16.5t-106 51.5t-70.5 90t-25.5 133zM111 268q0 -51 19.5 -87t52 -59.5t74.5 -33.5t89 -10q156 0 251 85t128 224l41 178l-4 4q-16 -18 -45 -29.5t-62.5 -17.5t-67.5 -8t-59 -4q-59 -4 -131.5 -11t-136 -31 t-106.5 -71t-43 -129z" />
<glyph unicode="b" horiz-adv-x="1175" d="M-20 0l309 1462h129l-125 -592h4q55 96 149.5 156.5t215.5 60.5q100 0 175.5 -33.5t126 -92t75 -139.5t24.5 -175q0 -121 -37 -241.5t-107.5 -217t-175 -157t-239.5 -60.5q-133 0 -230.5 70t-123.5 201h-5l-51 -242h-114zM199 399q0 -68 17 -126t53 -101t90 -68.5 t128 -25.5q111 0 194 53t139.5 136t85 185.5t28.5 198.5q0 147 -73 237.5t-230 90.5q-106 0 -187.5 -57.5t-135.5 -143.5t-81.5 -187.5t-27.5 -191.5z" />
<glyph unicode="c" horiz-adv-x="1062" d="M29 406q0 123 38.5 245.5t112.5 219t180.5 156.5t241.5 60q86 0 160 -21.5t127 -66.5t81 -113q27 -63 27 -147v-12h-129q1 11 1 21q0 48 -15 86q-18 48 -52 79t-82 48.5t-106 17.5q-117 0 -201.5 -51t-142 -133t-85 -184.5t-27.5 -204.5q0 -72 17.5 -131.5t54 -103.5 t92 -68.5t131.5 -24.5q129 0 218 73.5t130 190.5h129q-59 -182 -180 -276.5t-314 -94.5q-98 0 -174 32t-128 88t-78.5 136t-26.5 179z" />
<glyph unicode="d" horiz-adv-x="1175" d="M29 401q0 121 40 244t115.5 221.5t182 159.5t239.5 61q125 0 217 -52t127 -177h4l127 604h129l-313 -1462h-125l47 190h-4q-68 -104 -157 -161.5t-228 -57.5q-102 0 -177 31t-125 87t-74.5 136t-24.5 176zM158 393q0 -135 69.5 -225t214.5 -90q111 0 197 56t144.5 143.5 t89 192.5t30.5 204q0 139 -76.5 222t-218.5 83q-111 0 -195.5 -55.5t-141 -141.5t-85 -189.5t-28.5 -199.5z" />
<glyph unicode="e" horiz-adv-x="1062" d="M29 418q0 125 37.5 245.5t111.5 215t180.5 151.5t241.5 57q94 0 169 -29.5t127 -83.5t78.5 -130t26.5 -168q0 -45 -2 -90t-8 -92h-827q-6 -37 -6 -82q0 -72 18.5 -133.5t56 -105.5t96 -69.5t136.5 -25.5q127 0 218 72.5t128 189.5h129q-53 -178 -173 -273.5t-308 -95.5 q-211 0 -320.5 120t-109.5 327zM180 602h690q0 23 1 42.5t1 39.5q0 133 -76.5 214t-211.5 81q-80 0 -146.5 -32t-118 -84t-87 -119.5t-52.5 -141.5z" />
<glyph unicode="f" horiz-adv-x="530" d="M37 0l209 948h-185l25 109h182l33 153q12 57 32.5 104.5t54.5 80t82 50t114 17.5q35 0 67.5 -2t65.5 -12l-23 -107q-20 4 -39.5 8.5t-40.5 4.5q-90 0 -130 -36t-56 -114l-31 -147h209l-24 -109h-207l-209 -948h-129z" />
<glyph unicode="g" d="M-39 -78h127q0 -68 25.5 -113t66.5 -71.5t94.5 -37.5t110.5 -11q123 0 196.5 56t116.5 138t63.5 172t37.5 158l-4 4q-27 -47 -67 -83t-87 -60.5t-100.5 -37.5t-106.5 -13q-96 0 -168.5 32.5t-122 91t-75 136t-25.5 170.5q0 117 37 230.5t106.5 203.5t170 145t227.5 55 q59 0 116.5 -15t105.5 -46t81 -78t43 -108h4l45 217h119l-201 -946q-29 -137 -70 -237.5t-102 -165t-148.5 -96.5t-209.5 -32q-80 0 -154 18.5t-129 58.5t-88 105.5t-35 159.5zM172 463q0 -68 16.5 -127.5t52 -105.5t89 -72.5t127.5 -26.5q98 0 176 48t133 125t84 169 t29 182q0 70 -15.5 129.5t-50.5 102.5t-90 67.5t-133 24.5q-98 0 -176 -47t-132.5 -122t-82 -167t-27.5 -180z" />
<glyph unicode="h" horiz-adv-x="1099" d="M-20 0l313 1462h129l-129 -598h4q55 94 153.5 158.5t217.5 64.5q70 0 128 -16t101 -50t66.5 -88t23.5 -130q0 -47 -16 -125l-146 -678h-129l148 682q4 25 9 52.5t5 53.5q0 51 -18.5 88t-49 59.5t-70.5 33t-83 10.5q-70 0 -135.5 -30.5t-119.5 -87t-96 -137.5t-63 -181 l-117 -543h-126z" />
<glyph unicode="i" horiz-adv-x="378" d="M-20 0l225 1057h129l-228 -1057h-126zM248 1255l45 207h129l-45 -207h-129z" />
<glyph unicode="j" horiz-adv-x="378" d="M-279 -379l25 107q18 -2 36.5 -5.5t37.5 -3.5q59 0 86.5 32t38.5 75l260 1231h129l-264 -1235q-23 -104 -80.5 -157.5t-177.5 -53.5q-23 0 -45.5 4t-45.5 6zM248 1255l43 207h131l-45 -207h-129z" />
<glyph unicode="k" horiz-adv-x="948" d="M-20 0l309 1462h129l-197 -917l4 -4l619 516h172l-500 -408l320 -649h-142l-280 571l-226 -188l-82 -383h-126z" />
<glyph unicode="l" horiz-adv-x="378" d="M-20 0l313 1462h129l-316 -1462h-126z" />
<glyph unicode="m" horiz-adv-x="1705" d="M-20 0l225 1057h119l-41 -185l4 -4q57 92 155.5 155.5t216.5 63.5q111 0 178.5 -56t77.5 -169h5q61 98 156 161.5t214 63.5q154 0 223.5 -77.5t69.5 -200.5q0 -29 -4 -58.5t-10 -62.5l-148 -688h-129l150 692q12 55 12 107q0 78 -49 129t-152 51q-84 0 -146.5 -39 t-108.5 -105.5t-76.5 -155.5t-53.5 -192l-104 -487h-129l147 688q12 51 13 103q0 78 -42 133t-137 55q-70 0 -133 -35t-114.5 -94t-89 -140t-58.5 -173l-115 -537h-126z" />
<glyph unicode="n" horiz-adv-x="1099" d="M-20 0l225 1057h119l-37 -193h4q59 94 158.5 158.5t218.5 64.5q70 0 128 -16t101 -50t66.5 -88t23.5 -130q0 -47 -16 -125l-146 -678h-129l148 682q4 25 9 52.5t5 53.5q0 51 -18.5 88t-49 59.5t-70.5 33t-83 10.5q-70 0 -135.5 -30.5t-119.5 -87t-96 -137.5t-63 -181 l-117 -543h-126z" />
<glyph unicode="o" d="M29 410q0 129 38.5 251.5t114.5 217t185.5 151.5t250.5 57q92 0 169 -27.5t132.5 -80.5t86 -130t30.5 -175q0 -133 -36.5 -260t-109.5 -225.5t-182.5 -158t-256.5 -59.5q-205 0 -313.5 120t-108.5 319zM158 422q0 -154 77.5 -249t239.5 -95q106 0 187 54t135.5 138 t82 184.5t27.5 192.5q0 147 -77.5 239.5t-233.5 92.5q-106 0 -188 -52.5t-137.5 -133t-84 -180t-28.5 -191.5z" />
<glyph unicode="p" horiz-adv-x="1175" d="M-92 -389l309 1446h117l-41 -191h4q68 104 157 162.5t228 58.5q100 0 176 -31.5t126 -88t74.5 -136t24.5 -176.5q0 -121 -39.5 -242.5t-115.5 -220t-182.5 -160t-239.5 -61.5q-61 0 -118.5 13.5t-102.5 42t-76 73.5t-41 111h-4l-129 -600h-127zM209 383q0 -139 76.5 -222 t218.5 -83q111 0 195.5 55t141 141t85 189.5t28.5 200.5q0 135 -69.5 225t-214.5 90q-111 0 -197 -56.5t-144.5 -143.5t-89 -192.5t-30.5 -203.5z" />
<glyph unicode="q" horiz-adv-x="1175" d="M45 410q0 121 37 241.5t107.5 218t175 157.5t239.5 60q133 0 231.5 -66.5t131.5 -174.5h4l45 211h119l-312 -1446h-129l125 575h-4q-59 -96 -153.5 -155.5t-215.5 -59.5q-100 0 -175.5 33t-126 91.5t-75 139t-24.5 175.5zM174 406q0 -147 72.5 -237.5t230.5 -90.5 q106 0 187 57.5t135.5 143.5t82 187t27.5 191q0 68 -17.5 126.5t-53 101.5t-89.5 68.5t-128 25.5q-111 0 -194 -53.5t-139.5 -136t-85 -185t-28.5 -198.5z" />
<glyph unicode="r" horiz-adv-x="645" d="M-20 0l225 1057h117l-54 -244h4q31 57 68 104.5t84 82t103.5 53t127.5 18.5h35t35 -2l-29 -129q-18 0 -36.5 1t-36.5 1q-86 -2 -154 -35t-116 -87t-79.5 -123.5t-48.5 -143.5l-119 -553h-126z" />
<glyph unicode="s" horiz-adv-x="985" d="M0 344h127q0 -78 25.5 -129t67.5 -82t96.5 -43t109.5 -12q43 0 90 11t86 34.5t64.5 60.5t25.5 88t-24.5 87t-65.5 61.5t-92 45t-102 40.5q-53 20 -103.5 43.5t-90.5 57.5t-64.5 80t-24.5 112q0 76 37 131t94 90t127 51t133 16q82 0 152.5 -18t121.5 -59q50 -42 78 -106 q26 -60 25 -144v-12h-129q1 11 1 21q1 48 -15 83q-18 43 -52 71.5t-80.5 42t-101.5 13.5q-43 0 -89 -8t-84 -27.5t-63.5 -54.5t-25.5 -90q0 -37 18.5 -65.5t49 -51.5t70.5 -41t85 -37q55 -23 115.5 -46t111 -58t84 -84t33.5 -123q0 -90 -38 -150.5t-99 -99.5t-137 -55.5 t-152 -16.5t-148.5 21.5t-128.5 66.5q-58 45 -90 116q-29 63 -28 148v21z" />
<glyph unicode="t" horiz-adv-x="606" d="M63 948l25 109h191l67 319h129l-67 -319h210l-20 -109h-215l-145 -678q-8 -37 -11.5 -56t-3.5 -44q0 -29 15.5 -51.5t52.5 -22.5q74 0 151 13l-22 -111q-33 -4 -65.5 -6t-65.5 -2q-37 0 -72 5t-62.5 21.5t-44 46t-16.5 76.5q0 16 3 45t12 64l145 700h-191z" />
<glyph unicode="u" horiz-adv-x="1099" d="M41 254q0 47 16 125l146 678h129l-148 -682q-4 -25 -9 -52.5t-5 -54.5q0 -53 18.5 -89t49 -58.5t70.5 -32.5t83 -10q70 0 135.5 30.5t119.5 87t95 137.5t64 181l117 543h129l-228 -1057h-118l36 193h-4q-59 -94 -158.5 -158t-218.5 -64q-70 0 -128 15.5t-101 49.5 t-66.5 88t-23.5 130z" />
<glyph unicode="v" horiz-adv-x="948" d="M72 1057h135l125 -912h4l495 912h142l-596 -1057h-139z" />
<glyph unicode="w" horiz-adv-x="1517" d="M61 1057h136l84 -901h4l436 901h151l72 -893h4l449 893h137l-555 -1057h-139l-76 887h-4l-434 -887h-142z" />
<glyph unicode="x" horiz-adv-x="948" d="M-117 0l502 557l-248 500h148l192 -416l365 416h155l-465 -512l281 -545h-147l-226 461l-405 -461h-152z" />
<glyph unicode="y" horiz-adv-x="948" d="M-111 -379l25 105q55 -6 109 -7q59 0 100 37t65 78l97 166l-195 1057h135l152 -897h4l487 897h140l-752 -1305q-41 -72 -106.5 -106.5t-149.5 -34.5q-27 0 -54.5 4t-56.5 6z" />
<glyph unicode="z" horiz-adv-x="872" d="M-117 0l23 104l815 844h-631l23 109h794l-22 -103l-822 -845h678l-22 -109h-836z" />
<glyph unicode="{" horiz-adv-x="681" d="M119 496l22 108q45 0 80 27.5t60.5 74t45 105.5t31.5 121l64 305q25 117 86 186.5t147 69.5h103l-23 -109h-47q-23 0 -43 -6t-38.5 -27.5t-35 -63.5t-30.5 -113l-60 -289q-16 -84 -48 -144.5t-65.5 -100.5t-62.5 -60.5t-41 -26.5v-4q6 -4 20.5 -19.5t29 -41t25.5 -64.5 t11 -90q0 -27 -4 -55.5t-10 -61.5l-55 -262q-10 -53 -18.5 -91t-8.5 -54q0 -12 2 -29t10 -30t23.5 -22.5t44.5 -9.5h53l-22 -108h-82q-59 0 -108.5 45t-49.5 129q0 35 10 82l64 301q10 47 16 90t6 82q0 68 -22.5 112t-79.5 44z" />
<glyph unicode="|" horiz-adv-x="454" d="M174 -436v2046h109v-2046h-109z" />
<glyph unicode="}" horiz-adv-x="681" d="M-123 -389l23 108h47q23 0 42 6.5t37.5 28t35 63.5t30.5 113l60 287q16 84 47.5 144.5t65.5 100.5t62.5 60.5t41.5 26.5v4q-6 4 -20.5 18.5t-29 41t-25.5 64.5t-11 91q0 27 4 55.5t10 61.5l55 264q10 53 18.5 91t8.5 54q0 12 -2 28.5t-10.5 30t-24.5 22.5t-43 9h-53 l22 109h82q59 0 108.5 -45t49.5 -129q0 -35 -10 -82l-64 -303q-10 -47 -16 -90t-6 -82q0 -68 22.5 -112t79.5 -44l-22 -108q-45 0 -80 -28t-60.5 -74t-45 -105.5t-32.5 -120.5l-63 -303q-25 -117 -85 -186.5t-146 -69.5h-103z" />
<glyph unicode="~" horiz-adv-x="1228" d="M141 461q16 33 40 64.5t54.5 56t70.5 40t91 15.5q57 0 117.5 -20.5t118.5 -45.5q59 -27 110.5 -47t90.5 -20q61 0 103 44t77 97l73 -74q-23 -33 -48 -64.5t-55 -56t-67.5 -40t-85.5 -15.5q-61 0 -116.5 20.5t-108.5 47.5q-53 25 -106.5 45t-112.5 20q-68 0 -107.5 -44 t-64.5 -97z" />
<glyph unicode="&#xa1;" horiz-adv-x="569" d="M-2 -389l92 459l172 637h76l-111 -641l-94 -455h-135zM244 840l47 217h174l-49 -217h-172z" />
<glyph unicode="&#xa2;" d="M74 406q0 123 38 243.5t110.5 218t177 157.5t239.5 62l39 179h78l-39 -183q74 -8 134 -33.5t104 -70.5t66.5 -107.5t20.5 -144.5h-129q8 111 -55 176.5t-164 75.5l-192 -901q127 2 215 75.5t129 188.5h129q-59 -182 -180 -276.5t-314 -94.5h-4l-45 -209h-80l47 218 q-160 23 -242.5 137t-82.5 289zM203 406q0 -123 54 -210t165 -110l192 893q-104 -10 -182 -64.5t-128 -135.5t-75.5 -178t-25.5 -195z" />
<glyph unicode="&#xa3;" d="M-6 86q49 41 99 87t90 99.5t65.5 113.5t25.5 132q0 39 -7 78t-15 76h-178l14 69h143q-23 66 -38 131.5t-15 135.5q0 117 39 207t105.5 152.5t155.5 94t190 31.5q104 0 189 -35t143.5 -97.5t86 -149.5t19.5 -191h-129q6 78 -11.5 144.5t-55.5 115.5t-96 76.5t-138 27.5 q-74 0 -141.5 -21.5t-117.5 -66.5t-80 -114.5t-30 -163.5q0 -145 53 -277h324l-12 -69h-293q10 -39 17 -79t7 -81q0 -66 -24.5 -120t-63.5 -102t-85 -90t-91 -81l4 -4q49 23 103.5 35t111.5 12q37 0 79 -12.5t85 -28.5q45 -16 89 -29.5t85 -13.5q78 0 134.5 31.5t115.5 89.5 l49 -103q-76 -72 -151.5 -98.5t-179.5 -26.5q-43 0 -87.5 13.5t-91.5 29.5t-95 27.5t-97 11.5q-74 0 -132.5 -21.5t-119.5 -56.5z" />
<glyph unicode="&#xa4;" d="M61 279l115 114q-115 133 -115 316q0 92 30 172t83 145l-113 113l78 78l113 -113q66 53 146.5 83t170.5 30q92 0 172 -30t146 -83l112 113l78 -78l-112 -113q53 -66 82.5 -145.5t29.5 -171.5q0 -90 -29.5 -171t-82.5 -147l112 -112l-78 -78l-114 114 q-66 -55 -144.5 -84.5t-171.5 -29.5q-92 0 -173 29.5t-144 82.5l-113 -112zM190 709q0 -78 30 -147.5t81 -121t121 -81t147 -29.5q78 0 147.5 29.5t121 81t81 121t29.5 147.5t-29.5 147.5t-81 120.5t-121 80.5t-147.5 29.5t-147.5 -29.5t-120.5 -80.5t-81 -120.5t-30 -147.5 z" />
<glyph unicode="&#xa5;" d="M172 1462h131l279 -747l561 747h153l-575 -747h227l-20 -92h-279l-24 -33l-31 -137h299l-21 -93h-299l-77 -360h-129l79 360h-270l21 93h270l33 151l-6 19h-263l21 92h205z" />
<glyph unicode="&#xa6;" horiz-adv-x="454" d="M174 -180v510h109v-510h-109zM174 842v512h109v-512h-109z" />
<glyph unicode="&#xa7;" d="M20 27h130q-6 -59 9 -107.5t49 -83.5t83 -54.5t108 -19.5q39 0 80 11.5t74 35t53.5 56.5t20.5 76q0 49 -21.5 94t-58.5 90t-85 91t-102 97q-49 47 -97 96.5t-86 100.5t-61.5 105.5t-23.5 113.5q0 63 23.5 115.5t63.5 92.5t93.5 65.5t114.5 33.5q-23 35 -38 76t-15 82 q0 70 27.5 125t75.5 94t112.5 59.5t136.5 20.5q82 0 148.5 -20.5t112.5 -64.5t71.5 -111.5t23.5 -161.5h-129q0 53 -12 99t-38.5 80t-69.5 52t-103 18q-37 0 -78 -9t-73.5 -32.5t-54 -61.5t-21.5 -93q0 -43 22.5 -85t59.5 -84t84 -85t96 -88t95 -91t82 -95.5t58.5 -101.5 t22.5 -107q0 -135 -81 -219.5t-212 -100.5q29 -39 47.5 -83t18.5 -91q0 -78 -33 -135.5t-86 -94t-119.5 -55t-136.5 -18.5q-84 0 -152.5 27.5t-117 76.5t-73 118t-18.5 151zM221 729q0 -59 55.5 -137t131.5 -154l137 -137t90 -92q43 6 83 23.5t70.5 45t48 65.5t17.5 85 q0 66 -47 138.5t-117 142.5q-37 37 -73.5 71.5t-71.5 66.5t-62.5 58.5t-46.5 46.5q-35 0 -72.5 -16t-69.5 -46t-52.5 -71t-20.5 -90z" />
<glyph unicode="&#xa8;" horiz-adv-x="378" d="M76 1231l39 209h131l-41 -209h-129zM401 1231l39 209h131l-41 -209h-129z" />
<glyph unicode="&#xa9;" horiz-adv-x="1638" d="M57 731q0 160 58.5 299t161 242.5t241.5 162t301 58.5t301.5 -58.5t241.5 -162t160.5 -242.5t58.5 -299t-58.5 -299t-160.5 -241.5t-241.5 -161t-301.5 -58.5t-301 58.5t-241.5 161t-161 241.5t-58.5 299zM176 731q0 -137 48 -256t134 -207t204 -139t257 -51 q137 0 255 51t204 139t135 207t49 256t-49 256t-135 207t-204 139t-255 51q-139 0 -257 -51t-204 -139t-134 -207t-48 -256zM393 731q0 100 31 186.5t87 149.5t139 98t188 35q72 0 136 -20.5t115.5 -59.5t84 -97t43.5 -132h-105q-18 92 -89 154.5t-183 62.5 q-84 0 -146.5 -28.5t-105.5 -79t-64.5 -120t-21.5 -149.5t21.5 -148.5t64.5 -119.5t105.5 -80t146.5 -29q113 0 183.5 62.5t88.5 154.5h105q-10 -74 -43 -132t-84.5 -97t-116 -59.5t-135.5 -20.5q-104 0 -187.5 35t-139.5 98.5t-87 148.5t-31 187z" />
<glyph unicode="&#xaa;" horiz-adv-x="636" d="M49 940q0 55 20.5 92t53.5 60.5t76 37t90 19.5q66 10 121 9t96 9t61.5 35t20.5 76q0 27 -13.5 44t-34 26.5t-44 13.5t-43.5 4q-84 0 -145.5 -30.5t-76.5 -108.5h-88q16 115 99.5 167t203.5 52q35 0 77 -7t78 -23.5t59.5 -46.5t23.5 -75q0 -23 -4 -50t-9 -53t-10.5 -46.5 t-7.5 -26.5q-8 -35 -17 -72.5t-17.5 -72.5t-14.5 -60.5t-6 -33.5q0 -20 13.5 -23.5t29.5 -3.5h16.5t16.5 2l-12 -76q-31 -6 -68 -6t-56.5 19.5t-19.5 52.5q0 12 6 35h-6q-35 -61 -100.5 -93t-136.5 -32q-104 0 -168 42t-64 144zM145 940q0 -55 46.5 -80.5t103.5 -25.5 q102 0 162.5 50t83.5 134l26 100l-2 -2l-4 4q-8 -12 -26.5 -18t-40 -10.5t-43 -5.5t-37.5 -3q-39 -4 -85 -8t-87 -18.5t-69 -41t-28 -75.5z" />
<glyph unicode="&#xab;" horiz-adv-x="872" d="M102 526l31 131l326 232l-31 -139l-238 -172l154 -209l-25 -129zM430 526l31 131l325 232l-30 -139l-238 -172l154 -209l-25 -129z" />
<glyph unicode="&#xac;" horiz-adv-x="1228" d="M100 666v108h1030v-547h-108v439h-922z" />
<glyph unicode="&#xad;" horiz-adv-x="757" d="M78 504l24 119h514l-24 -119h-514z" />
<glyph unicode="&#xae;" horiz-adv-x="1638" d="M57 731q0 160 58.5 299t161 242.5t241.5 162t301 58.5t301.5 -58.5t241.5 -162t160.5 -242.5t58.5 -299t-58.5 -299t-160.5 -241.5t-241.5 -161t-301.5 -58.5t-301 58.5t-241.5 161t-161 241.5t-58.5 299zM176 731q0 -137 48 -256t134 -207t204 -139t257 -51 q137 0 255 51t204 139t135 207t49 256t-49 256t-135 207t-204 139t-255 51q-139 0 -257 -51t-204 -139t-134 -207t-48 -256zM543 291v880h338q150 0 218 -62t68 -181q0 -59 -17 -101.5t-48 -72t-71 -47t-85 -25.5l262 -391h-127l-247 391h-183v-391h-108zM651 774h144 q49 0 97 3t85 17.5t59.5 46t22.5 87.5q0 45 -17.5 74.5t-47 47t-67.5 23.5t-77 6h-199v-305z" />
<glyph unicode="&#xaf;" horiz-adv-x="378" d="M57 1284l17 92h524l-16 -92h-525z" />
<glyph unicode="&#xb0;" horiz-adv-x="819" d="M240 1151q0 61 22.5 114.5t62.5 93.5t94 63.5t116 23.5q61 0 114 -23.5t93 -63.5t63.5 -93.5t23.5 -114.5t-23.5 -115.5t-63.5 -94.5t-93 -62.5t-114 -22.5t-115.5 22.5t-94.5 62.5t-62.5 94.5t-22.5 115.5zM319 1151q0 -45 16.5 -84t46.5 -68.5t68.5 -46t84.5 -16.5 q45 0 83.5 16.5t67.5 46t46.5 68.5t17.5 84t-17.5 84t-46.5 67.5t-67.5 46t-83.5 17.5t-84 -17.5t-69 -46t-46.5 -67.5t-16.5 -84z" />
<glyph unicode="&#xb1;" horiz-adv-x="1228" d="M100 0v109h1030v-109h-1030zM102 553v109h459v368h109v-368h460v-109h-460v-369h-109v369h-459z" />
<glyph unicode="&#xb2;" horiz-adv-x="681" d="M23 561q4 72 32.5 125t72.5 95t100.5 75t113.5 62q57 31 112.5 59.5t97.5 63t67.5 77.5t25.5 99q0 76 -57.5 112.5t-130.5 36.5q-51 0 -92 -18.5t-70 -49t-45.5 -71.5t-18.5 -86h-96q2 68 27.5 124t68.5 96t101.5 62.5t130.5 22.5q55 0 105 -14.5t88 -44t60.5 -72.5 t24.5 -101q2 -61 -19.5 -109t-60 -85t-88 -67.5t-102.5 -57.5q-53 -29 -109.5 -56.5t-104.5 -58t-82 -64.5t-40 -75h504l-14 -80h-602z" />
<glyph unicode="&#xb3;" horiz-adv-x="681" d="M49 846h84q-6 -102 39 -162.5t162 -60.5q51 0 97 15t80 43t54.5 65.5t20.5 82.5q0 41 -16.5 69t-45 45.5t-66.5 25.5t-79 8h-45l14 80h53q43 0 86 6t78 24.5t56.5 50t21.5 83.5q0 72 -54 108.5t-126 36.5q-100 0 -156.5 -54.5t-73.5 -144.5h-83q25 131 101.5 205 t215.5 74q55 0 105.5 -13.5t87 -41t58 -69.5t21.5 -99q0 -82 -54 -138.5t-140 -68.5v-4q68 -16 102.5 -64.5t34.5 -113.5q0 -70 -27.5 -124.5t-76 -91t-113 -56t-135.5 -19.5q-82 0 -136.5 21.5t-87 60.5t-46 95t-11.5 126z" />
<glyph unicode="&#xb4;" horiz-adv-x="378" d="M172 1198l238 295h165l-294 -295h-109z" />
<glyph unicode="&#xb5;" horiz-adv-x="1099" d="M-102 -389l305 1446h129l-148 -682q-4 -25 -9 -52.5t-5 -54.5q0 -53 18.5 -89t49 -58.5t70.5 -32.5t83 -10q70 0 135.5 30.5t119.5 87t95 137.5t64 181l117 543h129l-228 -1057h-118l36 193h-4q-59 -94 -158.5 -158t-218.5 -64q-78 0 -142 20.5t-105 61.5l-93 -442h-122z " />
<glyph unicode="&#xb6;" horiz-adv-x="1228" d="M152 1061q41 195 181 298t357 103h445l-379 -1822h-109l361 1732h-260l-361 -1732h-108l215 1032q-90 0 -161 30.5t-117 84t-63.5 124t-0.5 150.5z" />
<glyph unicode="&#xb7;" horiz-adv-x="569" d="M145 639q0 47 34 81t81 34t81 -34t34 -81q0 -43 -34 -79t-79 -36q-47 0 -82 34t-35 81z" />
<glyph unicode="&#xb8;" horiz-adv-x="378" d="M-172 -371l29 60q47 -18 78.5 -26.5t78.5 -8.5q41 0 78 17.5t37 66.5q0 45 -34 64.5t-77 19.5q-41 0 -77 -19l-33 37l147 172h76l-119 -125l4 -4q14 4 29.5 6t44.5 2q61 0 106.5 -33.5t45.5 -107.5q0 -43 -20.5 -74.5t-52.5 -51t-71 -30t-75 -10.5q-59 0 -103.5 11.5 t-91.5 33.5z" />
<glyph unicode="&#xb9;" horiz-adv-x="681" d="M221 1194l19 80q82 10 160.5 43t131.5 110h78l-198 -866h-99l162 703q-31 -18 -65.5 -30.5t-68.5 -21t-65.5 -12.5t-54.5 -6z" />
<glyph unicode="&#xba;" horiz-adv-x="684" d="M74 1028q0 82 25.5 158t75.5 133t123 92t169 35q127 0 202.5 -66.5t75.5 -191.5q0 -84 -23.5 -163t-72.5 -139.5t-122 -96t-171 -35.5q-139 0 -210.5 73.5t-71.5 200.5zM170 1036q0 -90 50 -146t153 -56q68 0 119 32.5t86.5 82.5t53 109.5t17.5 112.5q0 86 -50 140.5 t-148 54.5q-68 0 -120 -31.5t-88 -80t-54.5 -106.5t-18.5 -112z" />
<glyph unicode="&#xbb;" horiz-adv-x="872" d="M31 240l30 139l238 172l-154 209l25 129l217 -287l-31 -131zM358 240l31 139l238 172l-154 209l25 129l217 -287l-31 -131z" />
<glyph unicode="&#xbc;" horiz-adv-x="1708" d="M221 1194l19 80q82 10 160.5 43t131.5 110h78l-198 -866h-99l162 703q-31 -18 -65.5 -30.5t-68.5 -21t-65.5 -12.5t-54.5 -6zM315 -68l910 1553h108l-909 -1553h-109zM911 203l15 88l563 569h92l-133 -577h129l-14 -80h-133l-48 -203h-96l47 203h-422zM1028 283h322 l100 430l-4 4z" />
<glyph unicode="&#xbd;" horiz-adv-x="1708" d="M170 1194l18 80q82 10 161 43t132 110h78l-199 -866h-98l162 703q-31 -18 -65.5 -30.5t-68.5 -21t-65.5 -12.5t-54.5 -6zM266 -68l910 1553h108l-909 -1553h-109zM918 0q4 72 32.5 125t72.5 95t100.5 75t113.5 61q57 31 112.5 59.5t97.5 63.5t67.5 78t25.5 98 q0 76 -57.5 113t-130.5 37q-51 0 -92 -18.5t-70 -49t-45.5 -71.5t-18.5 -86h-96q2 68 27.5 124t68.5 96t101.5 62.5t130.5 22.5q55 0 105 -14.5t88 -44t60.5 -72.5t24.5 -101q2 -61 -19.5 -109t-60 -85t-88 -68t-102.5 -57q-53 -29 -109.5 -56.5t-104.5 -58.5t-82 -64.5 t-40 -74.5h504l-14 -80h-602z" />
<glyph unicode="&#xbe;" horiz-adv-x="1708" d="M49 846h84q-6 -102 39 -162.5t162 -60.5q51 0 97 15t80 43t54.5 65.5t20.5 82.5q0 41 -16.5 69t-45 45.5t-66.5 25.5t-79 8h-45l14 80h53q43 0 86 6t78 24.5t56.5 50t21.5 83.5q0 72 -54 108.5t-126 36.5q-100 0 -156.5 -54.5t-73.5 -144.5h-83q25 131 101.5 205 t215.5 74q55 0 105.5 -13.5t87 -41t58 -69.5t21.5 -99q0 -82 -54 -138.5t-140 -68.5v-4q68 -16 102.5 -64.5t34.5 -113.5q0 -70 -27.5 -124.5t-76 -91t-113 -56t-135.5 -19.5q-82 0 -136.5 21.5t-87 60.5t-46 95t-11.5 126zM387 -68l909 1553h109l-909 -1553h-109zM911 203 l15 88l563 569h92l-133 -577h129l-14 -80h-133l-48 -203h-96l47 203h-422zM1028 283h322l100 430l-4 4z" />
<glyph unicode="&#xbf;" horiz-adv-x="1099" d="M-37 -76q0 82 26.5 147.5t71.5 120t103.5 99.5t124.5 86q51 33 86 65.5t58.5 70.5t37.5 82t27 103h129q-12 -90 -36 -150.5t-60.5 -107.5t-88 -87t-118.5 -87q-43 -29 -84 -63.5t-75 -74.5t-54.5 -87t-20.5 -98q0 -125 76 -189.5t199 -64.5q80 0 143 28.5t108.5 78.5 t71 119t31.5 146h129q-4 -111 -40 -198.5t-99.5 -151t-151.5 -97.5t-199 -34q-78 0 -149.5 21.5t-125.5 64.5t-87 107.5t-33 150.5zM504 840l47 217h174l-49 -217h-172z" />
<glyph unicode="&#xc0;" horiz-adv-x="1290" d="M-152 0l893 1462h152l266 -1462h-145l-74 455h-668l-270 -455h-154zM342 573h578l-125 770h-4zM594 1858h151l168 -295h-102z" />
<glyph unicode="&#xc1;" horiz-adv-x="1290" d="M-152 0l893 1462h152l266 -1462h-145l-74 455h-668l-270 -455h-154zM342 573h578l-125 770h-4zM666 1563l237 295h166l-295 -295h-108z" />
<glyph unicode="&#xc2;" horiz-adv-x="1290" d="M-152 0l893 1462h152l266 -1462h-145l-74 455h-668l-270 -455h-154zM342 573h578l-125 770h-4zM487 1563l279 295h129l176 -295h-117l-135 217l-207 -217h-125z" />
<glyph unicode="&#xc3;" horiz-adv-x="1290" d="M-152 0l893 1462h152l266 -1462h-145l-74 455h-668l-270 -455h-154zM342 573h578l-125 770h-4zM485 1593q10 37 25.5 74t38.5 68q23 29 54.5 47t72.5 18q39 0 73.5 -16.5t69.5 -36.5q35 -23 71 -42t73 -19q16 0 30.5 12t26.5 29.5t21.5 37t13.5 35.5h82 q-8 -35 -22.5 -71.5t-37.5 -65.5q-23 -31 -52.5 -50.5t-70.5 -19.5t-79.5 17.5t-75.5 38.5q-37 23 -70 41t-61 18q-18 0 -35 -11t-30 -28.5t-21.5 -37t-12.5 -38.5h-84z" />
<glyph unicode="&#xc4;" horiz-adv-x="1290" d="M-152 0l893 1462h152l266 -1462h-145l-74 455h-668l-270 -455h-154zM342 573h578l-125 770h-4zM569 1595l39 209h131l-41 -209h-129zM895 1595l39 209h131l-41 -209h-129z" />
<glyph unicode="&#xc5;" horiz-adv-x="1290" d="M-152 0l893 1462h152l266 -1462h-145l-74 455h-668l-270 -455h-154zM342 573h578l-125 770h-4zM616 1745q0 41 16.5 78t44.5 64.5t64.5 44t77.5 16.5t79 -16.5t65.5 -44t44 -64.5t16.5 -78q0 -86 -59.5 -145.5t-145.5 -59.5q-41 0 -77.5 16.5t-64.5 44t-44.5 65.5 t-16.5 79zM686 1745q0 -27 11.5 -51.5t29.5 -43t41.5 -29.5t50.5 -11q53 0 94 41t41 94q0 27 -11 50.5t-29.5 41.5t-43 29.5t-51.5 11.5q-53 0 -93 -40t-40 -93z" />
<glyph unicode="&#xc6;" horiz-adv-x="1820" d="M-164 0l1092 1462h1020l-27 -119h-731l-115 -528h686l-26 -119h-684l-125 -577h755l-26 -119h-895l100 463h-522l-338 -463h-164zM426 582h459l166 761h-62z" />
<glyph unicode="&#xc7;" horiz-adv-x="1441" d="M70 592q0 174 53 337t155.5 288.5t250 200.5t335.5 75q115 0 214.5 -31.5t172 -93t114.5 -154t44 -215.5h-139q-4 186 -115 280.5t-293 94.5q-166 0 -287.5 -68.5t-203.5 -180t-122 -254t-40 -291.5q0 -113 32.5 -203t95 -154.5t152 -99.5t203.5 -35q88 0 166 28.5 t142.5 82t112.5 129t75 172.5h139q-25 -113 -78 -209t-135 -167t-192.5 -112t-251.5 -41h-23.5t-23.5 2l-80 -86l4 -4q14 4 29.5 6t44.5 2q61 0 106 -33.5t45 -107.5q0 -43 -20.5 -74.5t-52 -51t-70.5 -30t-76 -10.5q-61 0 -105.5 11.5t-91.5 33.5l29 60q47 -18 79 -26.5 t81 -8.5q41 0 77.5 17.5t36.5 66.5q0 45 -33.5 64.5t-76.5 19.5t-80 -19l-33 37l123 144q-117 14 -208 64t-153.5 130t-95 185.5t-32.5 228.5z" />
<glyph unicode="&#xc8;" horiz-adv-x="1175" d="M10 0l312 1462h981l-27 -119h-840l-112 -528h784l-27 -119h-782l-123 -577h860l-26 -119h-1000zM629 1858h151l168 -295h-102z" />
<glyph unicode="&#xc9;" horiz-adv-x="1175" d="M10 0l312 1462h981l-27 -119h-840l-112 -528h784l-27 -119h-782l-123 -577h860l-26 -119h-1000zM664 1563l237 295h166l-295 -295h-108z" />
<glyph unicode="&#xca;" horiz-adv-x="1175" d="M10 0l312 1462h981l-27 -119h-840l-112 -528h784l-27 -119h-782l-123 -577h860l-26 -119h-1000zM485 1563l279 295h129l176 -295h-117l-135 217l-207 -217h-125z" />
<glyph unicode="&#xcb;" horiz-adv-x="1175" d="M10 0l312 1462h981l-27 -119h-840l-112 -528h784l-27 -119h-782l-123 -577h860l-26 -119h-1000zM567 1595l39 209h131l-41 -209h-129zM893 1595l39 209h131l-41 -209h-129z" />
<glyph unicode="&#xcc;" horiz-adv-x="454" d="M10 0l309 1462h140l-309 -1462h-140zM213 1858h152l167 -295h-102z" />
<glyph unicode="&#xcd;" horiz-adv-x="454" d="M10 0l309 1462h140l-309 -1462h-140zM248 1563l237 295h166l-295 -295h-108z" />
<glyph unicode="&#xce;" horiz-adv-x="454" d="M10 0l309 1462h140l-309 -1462h-140zM70 1563l278 295h129l176 -295h-116l-136 217l-206 -217h-125z" />
<glyph unicode="&#xcf;" horiz-adv-x="454" d="M10 0l309 1462h140l-309 -1462h-140zM152 1595l38 209h132l-41 -209h-129zM477 1595l39 209h131l-41 -209h-129z" />
<glyph unicode="&#xd0;" horiz-adv-x="1402" d="M4 713l21 92h161l142 657h471q158 0 264 -42t171.5 -118.5t93.5 -185t28 -239.5q0 -172 -51.5 -331t-152.5 -281t-250.5 -193.5t-346.5 -71.5h-545l156 713h-162zM176 119h352q182 0 312.5 65.5t214.5 174t123 251t39 293.5q0 440 -441 440h-334l-116 -538h436l-21 -92 h-436z" />
<glyph unicode="&#xd1;" horiz-adv-x="1441" d="M0 0l315 1462h158l584 -1306h4l270 1306h135l-319 -1462h-154l-583 1307h-4l-273 -1307h-133zM598 1593q10 37 25.5 74t38.5 68q23 29 54.5 47t71.5 18q39 0 74 -16.5t70 -36.5q35 -23 70.5 -42t72.5 -19q16 0 30.5 12t27 29.5t21.5 37t13 35.5h82q-8 -35 -22.5 -71.5 t-36.5 -65.5q-23 -31 -52.5 -50.5t-70.5 -19.5t-80 17.5t-76 38.5q-37 23 -69.5 41t-61.5 18q-18 0 -34.5 -11t-30 -28.5t-21.5 -37t-12 -38.5h-84z" />
<glyph unicode="&#xd2;" horiz-adv-x="1517" d="M70 592q0 174 53 337t155.5 288.5t250 200.5t335.5 75q139 0 252 -44t191.5 -124t120.5 -193.5t42 -250.5q0 -178 -52 -343t-154.5 -291t-251.5 -201t-342 -75q-143 0 -255 45t-188.5 127t-116.5 196t-40 253zM209 580q0 -113 32.5 -203t95 -154.5t152 -99.5t203.5 -35 q150 0 267.5 67.5t200.5 175t127 244t44 271.5q0 113 -27.5 210t-86 167.5t-146.5 110.5t-209 40q-166 0 -287.5 -68.5t-203.5 -180t-122 -254t-40 -291.5zM707 1858h151l168 -295h-102z" />
<glyph unicode="&#xd3;" horiz-adv-x="1517" d="M70 592q0 174 53 337t155.5 288.5t250 200.5t335.5 75q139 0 252 -44t191.5 -124t120.5 -193.5t42 -250.5q0 -178 -52 -343t-154.5 -291t-251.5 -201t-342 -75q-143 0 -255 45t-188.5 127t-116.5 196t-40 253zM209 580q0 -113 32.5 -203t95 -154.5t152 -99.5t203.5 -35 q150 0 267.5 67.5t200.5 175t127 244t44 271.5q0 113 -27.5 210t-86 167.5t-146.5 110.5t-209 40q-166 0 -287.5 -68.5t-203.5 -180t-122 -254t-40 -291.5zM741 1563l238 295h166l-295 -295h-109z" />
<glyph unicode="&#xd4;" horiz-adv-x="1517" d="M70 592q0 174 53 337t155.5 288.5t250 200.5t335.5 75q139 0 252 -44t191.5 -124t120.5 -193.5t42 -250.5q0 -178 -52 -343t-154.5 -291t-251.5 -201t-342 -75q-143 0 -255 45t-188.5 127t-116.5 196t-40 253zM209 580q0 -113 32.5 -203t95 -154.5t152 -99.5t203.5 -35 q150 0 267.5 67.5t200.5 175t127 244t44 271.5q0 113 -27.5 210t-86 167.5t-146.5 110.5t-209 40q-166 0 -287.5 -68.5t-203.5 -180t-122 -254t-40 -291.5zM563 1563l279 295h129l176 -295h-117l-135 217l-207 -217h-125z" />
<glyph unicode="&#xd5;" horiz-adv-x="1517" d="M70 592q0 174 53 337t155.5 288.5t250 200.5t335.5 75q139 0 252 -44t191.5 -124t120.5 -193.5t42 -250.5q0 -178 -52 -343t-154.5 -291t-251.5 -201t-342 -75q-143 0 -255 45t-188.5 127t-116.5 196t-40 253zM209 580q0 -113 32.5 -203t95 -154.5t152 -99.5t203.5 -35 q150 0 267.5 67.5t200.5 175t127 244t44 271.5q0 113 -27.5 210t-86 167.5t-146.5 110.5t-209 40q-166 0 -287.5 -68.5t-203.5 -180t-122 -254t-40 -291.5zM561 1593q10 37 25.5 74t38.5 68q23 29 54.5 47t72.5 18q39 0 73.5 -16.5t69.5 -36.5q35 -23 70.5 -42t72.5 -19 q16 0 30.5 12t27 29.5t21.5 37t13 35.5h82q-8 -35 -22 -71.5t-37 -65.5q-23 -31 -52.5 -50.5t-70.5 -19.5t-80 17.5t-76 38.5q-37 23 -69.5 41t-61.5 18q-18 0 -34.5 -11t-29.5 -28.5t-21.5 -37t-12.5 -38.5h-84z" />
<glyph unicode="&#xd6;" horiz-adv-x="1517" d="M70 592q0 174 53 337t155.5 288.5t250 200.5t335.5 75q139 0 252 -44t191.5 -124t120.5 -193.5t42 -250.5q0 -178 -52 -343t-154.5 -291t-251.5 -201t-342 -75q-143 0 -255 45t-188.5 127t-116.5 196t-40 253zM209 580q0 -113 32.5 -203t95 -154.5t152 -99.5t203.5 -35 q150 0 267.5 67.5t200.5 175t127 244t44 271.5q0 113 -27.5 210t-86 167.5t-146.5 110.5t-209 40q-166 0 -287.5 -68.5t-203.5 -180t-122 -254t-40 -291.5zM645 1595l39 209h131l-41 -209h-129zM971 1595l39 209h131l-41 -209h-129z" />
<glyph unicode="&#xd7;" horiz-adv-x="1228" d="M152 127l385 387l-385 387l75 76l387 -387l387 387l76 -76l-387 -387l387 -387l-76 -76l-387 385l-387 -385z" />
<glyph unicode="&#xd8;" horiz-adv-x="1517" d="M10 0l180 186q-121 158 -120 406q0 174 53 337t155.5 288.5t250 200.5t335.5 75q133 0 240.5 -40t187.5 -116l172 181l52 -60l-170 -176q59 -78 91.5 -178t32.5 -223q0 -178 -52 -343t-154.5 -291t-252 -201t-341.5 -75q-274 0 -430 160l-181 -184zM209 580 q0 -178 78 -293l913 954q-57 61 -141 97t-197 36q-166 0 -287.5 -68.5t-203.5 -180t-122 -254t-40 -291.5zM334 229q61 -66 151 -103.5t207 -37.5q150 0 267.5 67.5t200.5 175t127 244t44 271.5q0 98 -20.5 182t-63.5 152z" />
<glyph unicode="&#xd9;" horiz-adv-x="1441" d="M98 389q0 23 2 53.5t11 65.5l196 954h139l-194 -930q-10 -59 -14 -126q-4 -160 106.5 -239t292.5 -79q199 0 316.5 99.5t156.5 285.5l207 989h139l-209 -999q-53 -258 -216 -375t-413 -117q-96 0 -189 22.5t-167 72t-119 129t-45 194.5zM670 1858h151l168 -295h-102z" />
<glyph unicode="&#xda;" horiz-adv-x="1441" d="M98 389q0 23 2 53.5t11 65.5l196 954h139l-194 -930q-10 -59 -14 -126q-4 -160 106.5 -239t292.5 -79q199 0 316.5 99.5t156.5 285.5l207 989h139l-209 -999q-53 -258 -216 -375t-413 -117q-96 0 -189 22.5t-167 72t-119 129t-45 194.5zM778 1563l238 295h166l-295 -295 h-109z" />
<glyph unicode="&#xdb;" horiz-adv-x="1441" d="M98 389q0 23 2 53.5t11 65.5l196 954h139l-194 -930q-10 -59 -14 -126q-4 -160 106.5 -239t292.5 -79q199 0 316.5 99.5t156.5 285.5l207 989h139l-209 -999q-53 -258 -216 -375t-413 -117q-96 0 -189 22.5t-167 72t-119 129t-45 194.5zM600 1563l279 295h129l176 -295 h-117l-135 217l-207 -217h-125z" />
<glyph unicode="&#xdc;" horiz-adv-x="1441" d="M98 389q0 23 2 53.5t11 65.5l196 954h139l-194 -930q-10 -59 -14 -126q-4 -160 106.5 -239t292.5 -79q199 0 316.5 99.5t156.5 285.5l207 989h139l-209 -999q-53 -258 -216 -375t-413 -117q-96 0 -189 22.5t-167 72t-119 129t-45 194.5zM682 1595l39 209h131l-41 -209 h-129zM1008 1595l39 209h131l-41 -209h-129z" />
<glyph unicode="&#xdd;" horiz-adv-x="1175" d="M135 1462h148l329 -741l613 741h170l-733 -872l-130 -590h-141l133 604zM571 1563l238 295h166l-295 -295h-109z" />
<glyph unicode="&#xde;" horiz-adv-x="1290" d="M10 0l316 1462h139l-53 -239h450q82 0 153.5 -24.5t124 -71t82 -114t29.5 -151.5q0 -115 -37.5 -203t-104.5 -148t-159 -92t-202 -32h-517l-81 -387h-140zM258 506h494q76 0 141 22.5t114.5 65.5t77 105.5t27.5 142.5q0 74 -21.5 124t-60.5 80.5t-93 44t-122 13.5h-428z " />
<glyph unicode="&#xdf;" horiz-adv-x="1062" d="M-20 0l239 1116q39 180 142.5 278.5t289.5 98.5q76 0 141.5 -18.5t114.5 -56.5t77 -98t28 -144q0 -70 -23.5 -131.5t-65.5 -108.5t-99.5 -79t-125.5 -40v-4q117 -25 179.5 -103.5t62.5 -197.5q0 -106 -39 -200.5t-107.5 -166t-161.5 -113.5t-202 -42q-35 0 -67.5 1 t-67.5 7l22 104q23 -4 46.5 -5t46.5 -1q82 0 154.5 31t128 83t87 124t31.5 155q0 82 -27.5 133.5t-76 81t-112 40t-134.5 10.5l24 108q66 -2 136.5 14.5t129 53.5t95.5 95t37 140q0 104 -63.5 161.5t-164.5 57.5q-74 0 -126 -21.5t-89 -60t-60.5 -94t-37.5 -125.5 l-236 -1083h-126z" />
<glyph unicode="&#xe0;" horiz-adv-x="1062" d="M-16 262q0 84 30.5 141.5t80.5 95.5t115.5 58.5t137.5 32.5q51 8 98.5 11t90.5 5t79.5 4t67.5 11q63 16 95 59t32 147q0 47 -21.5 77t-53 46.5t-71.5 22.5t-77 6q-61 0 -116.5 -12.5t-100.5 -40t-75 -73.5t-40 -112h-129q12 90 52 156t99.5 108t134 62t160.5 20 q53 0 118 -10t120 -36.5t92 -72.5t37 -116q0 -39 -7 -86t-18.5 -95t-22.5 -94.5t-18 -80.5q-18 -90 -31.5 -147.5t-21.5 -96.5t-12 -63.5t-4 -49.5q0 -29 22.5 -36t44.5 -7q14 0 25.5 1t26.5 3l-19 -100q-23 -4 -51.5 -7t-54.5 -3q-53 0 -82 29.5t-31 82.5q0 14 1 28.5 t3 29.5l-4 4q-55 -92 -155.5 -142.5t-211.5 -50.5q-72 0 -133 16.5t-106 51.5t-70.5 90t-25.5 133zM111 268q0 -51 19.5 -87t52 -59.5t74.5 -33.5t89 -10q156 0 251 85t128 224l41 178l-4 4q-16 -18 -45 -29.5t-62.5 -17.5t-67.5 -8t-59 -4q-59 -4 -131.5 -11t-136 -31 t-106.5 -71t-43 -129zM418 1493h151l168 -295h-102z" />
<glyph unicode="&#xe1;" horiz-adv-x="1062" d="M-16 262q0 84 30.5 141.5t80.5 95.5t115.5 58.5t137.5 32.5q51 8 98.5 11t90.5 5t79.5 4t67.5 11q63 16 95 59t32 147q0 47 -21.5 77t-53 46.5t-71.5 22.5t-77 6q-61 0 -116.5 -12.5t-100.5 -40t-75 -73.5t-40 -112h-129q12 90 52 156t99.5 108t134 62t160.5 20 q53 0 118 -10t120 -36.5t92 -72.5t37 -116q0 -39 -7 -86t-18.5 -95t-22.5 -94.5t-18 -80.5q-18 -90 -31.5 -147.5t-21.5 -96.5t-12 -63.5t-4 -49.5q0 -29 22.5 -36t44.5 -7q14 0 25.5 1t26.5 3l-19 -100q-23 -4 -51.5 -7t-54.5 -3q-53 0 -82 29.5t-31 82.5q0 14 1 28.5 t3 29.5l-4 4q-55 -92 -155.5 -142.5t-211.5 -50.5q-72 0 -133 16.5t-106 51.5t-70.5 90t-25.5 133zM111 268q0 -51 19.5 -87t52 -59.5t74.5 -33.5t89 -10q156 0 251 85t128 224l41 178l-4 4q-16 -18 -45 -29.5t-62.5 -17.5t-67.5 -8t-59 -4q-59 -4 -131.5 -11t-136 -31 t-106.5 -71t-43 -129zM514 1198l238 295h166l-295 -295h-109z" />
<glyph unicode="&#xe2;" horiz-adv-x="1062" d="M-16 262q0 84 30.5 141.5t80.5 95.5t115.5 58.5t137.5 32.5q51 8 98.5 11t90.5 5t79.5 4t67.5 11q63 16 95 59t32 147q0 47 -21.5 77t-53 46.5t-71.5 22.5t-77 6q-61 0 -116.5 -12.5t-100.5 -40t-75 -73.5t-40 -112h-129q12 90 52 156t99.5 108t134 62t160.5 20 q53 0 118 -10t120 -36.5t92 -72.5t37 -116q0 -39 -7 -86t-18.5 -95t-22.5 -94.5t-18 -80.5q-18 -90 -31.5 -147.5t-21.5 -96.5t-12 -63.5t-4 -49.5q0 -29 22.5 -36t44.5 -7q14 0 25.5 1t26.5 3l-19 -100q-23 -4 -51.5 -7t-54.5 -3q-53 0 -82 29.5t-31 82.5q0 14 1 28.5 t3 29.5l-4 4q-55 -92 -155.5 -142.5t-211.5 -50.5q-72 0 -133 16.5t-106 51.5t-70.5 90t-25.5 133zM111 268q0 -51 19.5 -87t52 -59.5t74.5 -33.5t89 -10q156 0 251 85t128 224l41 178l-4 4q-16 -18 -45 -29.5t-62.5 -17.5t-67.5 -8t-59 -4q-59 -4 -131.5 -11t-136 -31 t-106.5 -71t-43 -129zM336 1198l278 295h129l177 -295h-117l-135 217l-207 -217h-125z" />
<glyph unicode="&#xe3;" horiz-adv-x="1062" d="M-16 262q0 84 30.5 141.5t80.5 95.5t115.5 58.5t137.5 32.5q51 8 98.5 11t90.5 5t79.5 4t67.5 11q63 16 95 59t32 147q0 47 -21.5 77t-53 46.5t-71.5 22.5t-77 6q-61 0 -116.5 -12.5t-100.5 -40t-75 -73.5t-40 -112h-129q12 90 52 156t99.5 108t134 62t160.5 20 q53 0 118 -10t120 -36.5t92 -72.5t37 -116q0 -39 -7 -86t-18.5 -95t-22.5 -94.5t-18 -80.5q-18 -90 -31.5 -147.5t-21.5 -96.5t-12 -63.5t-4 -49.5q0 -29 22.5 -36t44.5 -7q14 0 25.5 1t26.5 3l-19 -100q-23 -4 -51.5 -7t-54.5 -3q-53 0 -82 29.5t-31 82.5q0 14 1 28.5 t3 29.5l-4 4q-55 -92 -155.5 -142.5t-211.5 -50.5q-72 0 -133 16.5t-106 51.5t-70.5 90t-25.5 133zM111 268q0 -51 19.5 -87t52 -59.5t74.5 -33.5t89 -10q156 0 251 85t128 224l41 178l-4 4q-16 -18 -45 -29.5t-62.5 -17.5t-67.5 -8t-59 -4q-59 -4 -131.5 -11t-136 -31 t-106.5 -71t-43 -129zM334 1229q10 37 25.5 73.5t37.5 67.5q23 29 54.5 47.5t72.5 18.5q39 0 74 -16.5t70 -37.5q35 -23 70.5 -42t72.5 -19q16 0 30.5 12.5t27 29.5t21.5 36.5t13 36.5h82q-8 -35 -22.5 -72t-36.5 -66q-23 -31 -52.5 -50t-70.5 -19t-80 17.5t-76 37.5 q-37 23 -69.5 41t-61.5 18q-18 0 -34.5 -11t-30 -28.5t-21.5 -37t-12 -37.5h-84z" />
<glyph unicode="&#xe4;" horiz-adv-x="1062" d="M-16 262q0 84 30.5 141.5t80.5 95.5t115.5 58.5t137.5 32.5q51 8 98.5 11t90.5 5t79.5 4t67.5 11q63 16 95 59t32 147q0 47 -21.5 77t-53 46.5t-71.5 22.5t-77 6q-61 0 -116.5 -12.5t-100.5 -40t-75 -73.5t-40 -112h-129q12 90 52 156t99.5 108t134 62t160.5 20 q53 0 118 -10t120 -36.5t92 -72.5t37 -116q0 -39 -7 -86t-18.5 -95t-22.5 -94.5t-18 -80.5q-18 -90 -31.5 -147.5t-21.5 -96.5t-12 -63.5t-4 -49.5q0 -29 22.5 -36t44.5 -7q14 0 25.5 1t26.5 3l-19 -100q-23 -4 -51.5 -7t-54.5 -3q-53 0 -82 29.5t-31 82.5q0 14 1 28.5 t3 29.5l-4 4q-55 -92 -155.5 -142.5t-211.5 -50.5q-72 0 -133 16.5t-106 51.5t-70.5 90t-25.5 133zM111 268q0 -51 19.5 -87t52 -59.5t74.5 -33.5t89 -10q156 0 251 85t128 224l41 178l-4 4q-16 -18 -45 -29.5t-62.5 -17.5t-67.5 -8t-59 -4q-59 -4 -131.5 -11t-136 -31 t-106.5 -71t-43 -129zM418 1231l39 209h131l-41 -209h-129zM743 1231l39 209h131l-41 -209h-129z" />
<glyph unicode="&#xe5;" horiz-adv-x="1062" d="M-16 262q0 84 30.5 141.5t80.5 95.5t115.5 58.5t137.5 32.5q51 8 98.5 11t90.5 5t79.5 4t67.5 11q63 16 95 59t32 147q0 47 -21.5 77t-53 46.5t-71.5 22.5t-77 6q-61 0 -116.5 -12.5t-100.5 -40t-75 -73.5t-40 -112h-129q12 90 52 156t99.5 108t134 62t160.5 20 q53 0 118 -10t120 -36.5t92 -72.5t37 -116q0 -39 -7 -86t-18.5 -95t-22.5 -94.5t-18 -80.5q-18 -90 -31.5 -147.5t-21.5 -96.5t-12 -63.5t-4 -49.5q0 -29 22.5 -36t44.5 -7q14 0 25.5 1t26.5 3l-19 -100q-23 -4 -51.5 -7t-54.5 -3q-53 0 -82 29.5t-31 82.5q0 14 1 28.5 t3 29.5l-4 4q-55 -92 -155.5 -142.5t-211.5 -50.5q-72 0 -133 16.5t-106 51.5t-70.5 90t-25.5 133zM111 268q0 -51 19.5 -87t52 -59.5t74.5 -33.5t89 -10q156 0 251 85t128 224l41 178l-4 4q-16 -18 -45 -29.5t-62.5 -17.5t-67.5 -8t-59 -4q-59 -4 -131.5 -11t-136 -31 t-106.5 -71t-43 -129zM465 1380q0 41 16.5 78t44 64.5t64.5 44t78 16.5t78.5 -16.5t65.5 -44t44 -64.5t16 -78q0 -86 -59 -145t-145 -59q-41 0 -78 16t-64.5 44t-44 65.5t-16.5 78.5zM535 1380q0 -27 11 -51t29.5 -42.5t42 -30t50.5 -11.5q53 0 94 41t41 94q0 27 -11.5 50.5 t-30 42t-43 29.5t-50.5 11q-53 0 -93 -39.5t-40 -93.5z" />
<glyph unicode="&#xe6;" horiz-adv-x="1744" d="M-16 262q0 84 30.5 141.5t80.5 95.5t115.5 58.5t137.5 32.5q51 8 98.5 11t90.5 5t79.5 4t67.5 11q63 16 95 59t32 147q0 47 -21.5 77t-53 46.5t-71.5 22.5t-77 6q-61 0 -116.5 -12.5t-100.5 -40t-75 -73.5t-40 -112h-129q12 90 52 156t99.5 108t134 62t160.5 20 q49 0 103.5 -9t102.5 -32.5t85 -65.5t51 -108q61 109 161 162t218 53q96 0 169 -31.5t121 -88t72.5 -136t24.5 -174.5q0 -39 -5 -80.5t-15 -82.5h-789q-6 -31 -11 -67t-5 -71q0 -131 82 -204.5t205 -73.5q129 0 223 69.5t127 192.5h129q-61 -186 -182 -277.5t-324 -91.5 q-68 0 -129 16.5t-109.5 50.5t-79 86t-38.5 126h-4q-51 -143 -164 -211t-273 -68q-72 0 -133 16.5t-106 51.5t-70.5 90t-25.5 133zM111 268q0 -51 19.5 -87t52 -59.5t74.5 -33.5t89 -10q156 0 251 85t128 224l41 178l-4 4q-16 -18 -45 -29.5t-62.5 -17.5t-67.5 -8t-59 -4 q-59 -4 -131.5 -11t-136 -31t-106.5 -71t-43 -129zM891 602h657q4 25 4 46.5v43.5q0 125 -69.5 206t-200.5 81q-84 0 -148.5 -29.5t-113.5 -81t-81 -120t-48 -146.5z" />
<glyph unicode="&#xe7;" horiz-adv-x="1062" d="M29 406q0 123 38.5 245.5t112.5 219t180.5 156.5t241.5 60q86 0 160 -21.5t127 -66.5t81.5 -112.5t26.5 -159.5h-129q4 59 -14 106.5t-52 79t-82 49t-106 17.5q-117 0 -201.5 -51t-142 -133t-85 -184.5t-27.5 -204.5q0 -72 17.5 -131.5t54 -103.5t92 -68.5t131.5 -24.5 q129 0 218 73.5t130 190.5h129q-59 -182 -180 -276.5t-314 -94.5h-4l-80 -84l4 -4q14 4 29.5 6t44.5 2q61 0 106.5 -33.5t45.5 -107.5q0 -43 -20.5 -74.5t-52.5 -51t-71 -30t-76 -10.5q-61 0 -105 11.5t-91 33.5l29 60q47 -18 78.5 -26.5t80.5 -8.5q41 0 78 17.5t37 66.5 q0 45 -34 64.5t-77 19.5t-79 -19l-33 37l119 137q-164 20 -250 135t-86 294z" />
<glyph unicode="&#xe8;" horiz-adv-x="1062" d="M29 418q0 125 37.5 245.5t111.5 215t180.5 151.5t241.5 57q94 0 169 -29.5t127 -83.5t78.5 -130t26.5 -168q0 -45 -2 -90t-8 -92h-827q-6 -37 -6 -82q0 -72 18.5 -133.5t56 -105.5t96 -69.5t136.5 -25.5q127 0 218 72.5t128 189.5h129q-53 -178 -173 -273.5t-308 -95.5 q-211 0 -320.5 120t-109.5 327zM180 602h690q0 23 1 42.5t1 39.5q0 133 -76.5 214t-211.5 81q-80 0 -146.5 -32t-118 -84t-87 -119.5t-52.5 -141.5zM418 1493h151l168 -295h-102z" />
<glyph unicode="&#xe9;" horiz-adv-x="1062" d="M29 418q0 125 37.5 245.5t111.5 215t180.5 151.5t241.5 57q94 0 169 -29.5t127 -83.5t78.5 -130t26.5 -168q0 -45 -2 -90t-8 -92h-827q-6 -37 -6 -82q0 -72 18.5 -133.5t56 -105.5t96 -69.5t136.5 -25.5q127 0 218 72.5t128 189.5h129q-53 -178 -173 -273.5t-308 -95.5 q-211 0 -320.5 120t-109.5 327zM180 602h690q0 23 1 42.5t1 39.5q0 133 -76.5 214t-211.5 81q-80 0 -146.5 -32t-118 -84t-87 -119.5t-52.5 -141.5zM514 1198l238 295h166l-295 -295h-109z" />
<glyph unicode="&#xea;" horiz-adv-x="1062" d="M29 418q0 125 37.5 245.5t111.5 215t180.5 151.5t241.5 57q94 0 169 -29.5t127 -83.5t78.5 -130t26.5 -168q0 -45 -2 -90t-8 -92h-827q-6 -37 -6 -82q0 -72 18.5 -133.5t56 -105.5t96 -69.5t136.5 -25.5q127 0 218 72.5t128 189.5h129q-53 -178 -173 -273.5t-308 -95.5 q-211 0 -320.5 120t-109.5 327zM180 602h690q0 23 1 42.5t1 39.5q0 133 -76.5 214t-211.5 81q-80 0 -146.5 -32t-118 -84t-87 -119.5t-52.5 -141.5zM336 1198l278 295h129l177 -295h-117l-135 217l-207 -217h-125z" />
<glyph unicode="&#xeb;" horiz-adv-x="1062" d="M29 418q0 125 37.5 245.5t111.5 215t180.5 151.5t241.5 57q94 0 169 -29.5t127 -83.5t78.5 -130t26.5 -168q0 -45 -2 -90t-8 -92h-827q-6 -37 -6 -82q0 -72 18.5 -133.5t56 -105.5t96 -69.5t136.5 -25.5q127 0 218 72.5t128 189.5h129q-53 -178 -173 -273.5t-308 -95.5 q-211 0 -320.5 120t-109.5 327zM180 602h690q0 23 1 42.5t1 39.5q0 133 -76.5 214t-211.5 81q-80 0 -146.5 -32t-118 -84t-87 -119.5t-52.5 -141.5zM418 1231l39 209h131l-41 -209h-129zM743 1231l39 209h131l-41 -209h-129z" />
<glyph unicode="&#xec;" horiz-adv-x="378" d="M-20 0l225 1057h129l-228 -1057h-126zM137 1493h152l168 -295h-103z" />
<glyph unicode="&#xed;" horiz-adv-x="378" d="M-20 0l225 1057h129l-228 -1057h-126zM172 1198l238 295h165l-294 -295h-109z" />
<glyph unicode="&#xee;" horiz-adv-x="378" d="M-20 0l225 1057h129l-228 -1057h-126zM-4 1198l276 295h129l177 -295h-117l-135 217l-207 -217h-123z" />
<glyph unicode="&#xef;" horiz-adv-x="378" d="M-20 0l225 1057h129l-228 -1057h-126zM76 1231l39 209h131l-41 -209h-129zM401 1231l39 209h131l-41 -209h-129z" />
<glyph unicode="&#xf0;" d="M29 389q0 123 38.5 239.5t114.5 208t185.5 145.5t250.5 54q35 0 75 -5t79 -20.5t75 -41t64 -68.5h4q-18 104 -66 203.5t-120 171.5l-221 -113l-53 64l213 108q-41 37 -84 64.5t-88 48.5l94 72q104 -53 184 -129l240 120l53 -63l-236 -119q111 -123 163.5 -282.5 t47.5 -333.5q-4 -141 -37.5 -274.5t-105.5 -237t-182.5 -167t-265.5 -63.5q-102 0 -181.5 30t-132.5 85t-80.5 132t-27.5 171zM158 401q0 -145 77.5 -234t239.5 -89q109 0 191 51t137 131t82.5 175t27.5 181q0 137 -78.5 224.5t-238.5 87.5q-106 0 -188 -50.5t-137.5 -127 t-84 -170t-28.5 -179.5z" />
<glyph unicode="&#xf1;" horiz-adv-x="1099" d="M-20 0l225 1057h119l-37 -193h4q59 94 158.5 158.5t218.5 64.5q70 0 128 -16t101 -50t66.5 -88t23.5 -130q0 -47 -16 -125l-146 -678h-129l148 682q4 25 9 52.5t5 53.5q0 51 -18.5 88t-49 59.5t-70.5 33t-83 10.5q-70 0 -135.5 -30.5t-119.5 -87t-96 -137.5t-63 -181 l-117 -543h-126zM352 1229q10 37 25.5 73.5t38.5 67.5q23 29 54.5 47.5t72.5 18.5q39 0 73.5 -16.5t69.5 -37.5q35 -23 71 -42t72 -19q16 0 30.5 12.5t27 29.5t22 36.5t13.5 36.5h82q-8 -35 -22.5 -72t-37.5 -66q-23 -31 -52.5 -50t-70.5 -19t-80 17.5t-75 37.5 q-37 23 -70 41t-61 18q-18 0 -35 -11t-30 -28.5t-21.5 -37t-12.5 -37.5h-84z" />
<glyph unicode="&#xf2;" d="M29 410q0 129 38.5 251.5t114.5 217t185.5 151.5t250.5 57q92 0 169 -27.5t132.5 -80.5t86 -130t30.5 -175q0 -133 -36.5 -260t-109.5 -225.5t-182.5 -158t-256.5 -59.5q-205 0 -313.5 120t-108.5 319zM158 422q0 -154 77.5 -249t239.5 -95q106 0 187 54t135.5 138 t82 184.5t27.5 192.5q0 147 -77.5 239.5t-233.5 92.5q-106 0 -188 -52.5t-137.5 -133t-84 -180t-28.5 -191.5zM457 1493h151l168 -295h-102z" />
<glyph unicode="&#xf3;" d="M29 410q0 129 38.5 251.5t114.5 217t185.5 151.5t250.5 57q92 0 169 -27.5t132.5 -80.5t86 -130t30.5 -175q0 -133 -36.5 -260t-109.5 -225.5t-182.5 -158t-256.5 -59.5q-205 0 -313.5 120t-108.5 319zM158 422q0 -154 77.5 -249t239.5 -95q106 0 187 54t135.5 138 t82 184.5t27.5 192.5q0 147 -77.5 239.5t-233.5 92.5q-106 0 -188 -52.5t-137.5 -133t-84 -180t-28.5 -191.5zM553 1198l238 295h165l-294 -295h-109z" />
<glyph unicode="&#xf4;" d="M29 410q0 129 38.5 251.5t114.5 217t185.5 151.5t250.5 57q92 0 169 -27.5t132.5 -80.5t86 -130t30.5 -175q0 -133 -36.5 -260t-109.5 -225.5t-182.5 -158t-256.5 -59.5q-205 0 -313.5 120t-108.5 319zM158 422q0 -154 77.5 -249t239.5 -95q106 0 187 54t135.5 138 t82 184.5t27.5 192.5q0 147 -77.5 239.5t-233.5 92.5q-106 0 -188 -52.5t-137.5 -133t-84 -180t-28.5 -191.5zM375 1198l278 295h129l176 -295h-116l-135 217l-207 -217h-125z" />
<glyph unicode="&#xf5;" d="M29 410q0 129 38.5 251.5t114.5 217t185.5 151.5t250.5 57q92 0 169 -27.5t132.5 -80.5t86 -130t30.5 -175q0 -133 -36.5 -260t-109.5 -225.5t-182.5 -158t-256.5 -59.5q-205 0 -313.5 120t-108.5 319zM158 422q0 -154 77.5 -249t239.5 -95q106 0 187 54t135.5 138 t82 184.5t27.5 192.5q0 147 -77.5 239.5t-233.5 92.5q-106 0 -188 -52.5t-137.5 -133t-84 -180t-28.5 -191.5zM373 1229q10 37 25.5 73.5t37.5 67.5q23 29 54.5 47.5t72.5 18.5q39 0 74 -16.5t70 -37.5q35 -23 70.5 -42t72.5 -19q16 0 30.5 12.5t27 29.5t21.5 36.5t13 36.5 h82q-8 -35 -22.5 -72t-36.5 -66q-23 -31 -52.5 -50t-70.5 -19t-80 17.5t-76 37.5q-37 23 -69.5 41t-61.5 18q-18 0 -34.5 -11t-30 -28.5t-21.5 -37t-12 -37.5h-84z" />
<glyph unicode="&#xf6;" d="M29 410q0 129 38.5 251.5t114.5 217t185.5 151.5t250.5 57q92 0 169 -27.5t132.5 -80.5t86 -130t30.5 -175q0 -133 -36.5 -260t-109.5 -225.5t-182.5 -158t-256.5 -59.5q-205 0 -313.5 120t-108.5 319zM158 422q0 -154 77.5 -249t239.5 -95q106 0 187 54t135.5 138 t82 184.5t27.5 192.5q0 147 -77.5 239.5t-233.5 92.5q-106 0 -188 -52.5t-137.5 -133t-84 -180t-28.5 -191.5zM457 1231l39 209h131l-41 -209h-129zM782 1231l39 209h131l-41 -209h-129z" />
<glyph unicode="&#xf7;" horiz-adv-x="1228" d="M100 461v108h1030v-108h-1030zM500 102q0 47 33.5 81t80.5 34t81 -33.5t34 -81.5q0 -43 -33.5 -77.5t-79.5 -34.5q-47 0 -81.5 32.5t-34.5 79.5zM500 928q0 47 33.5 80.5t80.5 33.5t81 -33.5t34 -80.5q0 -43 -33.5 -79t-79.5 -36q-47 0 -81.5 34t-34.5 81z" />
<glyph unicode="&#xf8;" d="M-27 0l131 133q-76 113 -75 277q0 129 38.5 251.5t114.5 217t185.5 151.5t250.5 57q98 0 177 -30.5t135 -89.5l119 118l45 -43l-123 -124q66 -102 65 -244q0 -133 -36.5 -260t-109.5 -225.5t-182.5 -158t-256.5 -59.5q-197 0 -308 115l-131 -129zM158 422q0 -55 9 -103.5 t32 -89.5l639 645q-82 104 -242 105q-106 0 -188 -52.5t-137.5 -133t-84 -180t-28.5 -191.5zM233 178q39 -47 98.5 -73.5t143.5 -26.5q106 0 187 54t135.5 138t82 184.5t27.5 192.5q0 96 -35 172z" />
<glyph unicode="&#xf9;" horiz-adv-x="1099" d="M41 254q0 47 16 125l146 678h129l-148 -682q-4 -25 -9 -52.5t-5 -54.5q0 -53 18.5 -89t49 -58.5t70.5 -32.5t83 -10q70 0 135.5 30.5t119.5 87t95 137.5t64 181l117 543h129l-228 -1057h-118l36 193h-4q-59 -94 -158.5 -158t-218.5 -64q-70 0 -128 15.5t-101 49.5 t-66.5 88t-23.5 130zM436 1493h152l168 -295h-103z" />
<glyph unicode="&#xfa;" horiz-adv-x="1099" d="M41 254q0 47 16 125l146 678h129l-148 -682q-4 -25 -9 -52.5t-5 -54.5q0 -53 18.5 -89t49 -58.5t70.5 -32.5t83 -10q70 0 135.5 30.5t119.5 87t95 137.5t64 181l117 543h129l-228 -1057h-118l36 193h-4q-59 -94 -158.5 -158t-218.5 -64q-70 0 -128 15.5t-101 49.5 t-66.5 88t-23.5 130zM532 1198l238 295h166l-295 -295h-109z" />
<glyph unicode="&#xfb;" horiz-adv-x="1099" d="M41 254q0 47 16 125l146 678h129l-148 -682q-4 -25 -9 -52.5t-5 -54.5q0 -53 18.5 -89t49 -58.5t70.5 -32.5t83 -10q70 0 135.5 30.5t119.5 87t95 137.5t64 181l117 543h129l-228 -1057h-118l36 193h-4q-59 -94 -158.5 -158t-218.5 -64q-70 0 -128 15.5t-101 49.5 t-66.5 88t-23.5 130zM334 1198l278 295h129l177 -295h-117l-135 217l-207 -217h-125z" />
<glyph unicode="&#xfc;" horiz-adv-x="1099" d="M41 254q0 47 16 125l146 678h129l-148 -682q-4 -25 -9 -52.5t-5 -54.5q0 -53 18.5 -89t49 -58.5t70.5 -32.5t83 -10q70 0 135.5 30.5t119.5 87t95 137.5t64 181l117 543h129l-228 -1057h-118l36 193h-4q-59 -94 -158.5 -158t-218.5 -64q-70 0 -128 15.5t-101 49.5 t-66.5 88t-23.5 130zM416 1231l39 209h131l-41 -209h-129zM741 1231l39 209h131l-41 -209h-129z" />
<glyph unicode="&#xfd;" horiz-adv-x="948" d="M-111 -379l25 105q55 -6 109 -7q59 0 100 37t65 78l97 166l-195 1057h135l152 -897h4l487 897h140l-752 -1305q-41 -72 -106.5 -106.5t-149.5 -34.5q-27 0 -54.5 4t-56.5 6zM457 1198l237 295h166l-295 -295h-108z" />
<glyph unicode="&#xfe;" horiz-adv-x="1175" d="M-92 -389l397 1851h129l-127 -592h4q57 102 143.5 159.5t227.5 57.5q100 0 176 -31.5t126 -88t74.5 -136t24.5 -176.5q0 -121 -39.5 -242.5t-115.5 -220t-182.5 -160t-239.5 -61.5q-61 0 -118.5 13.5t-102.5 42t-76 73.5t-41 111h-4l-129 -600h-127zM209 383 q0 -139 76.5 -222t218.5 -83q111 0 195.5 55t141 141t85 189.5t28.5 200.5q0 135 -69.5 225t-214.5 90q-111 0 -197 -56.5t-144.5 -143.5t-89 -192.5t-30.5 -203.5z" />
<glyph unicode="&#xff;" horiz-adv-x="948" d="M-111 -379l25 105q55 -6 109 -7q59 0 100 37t65 78l97 166l-195 1057h135l152 -897h4l487 897h140l-752 -1305q-41 -72 -106.5 -106.5t-149.5 -34.5q-27 0 -54.5 4t-56.5 6zM360 1231l39 209h131l-41 -209h-129zM686 1231l39 209h131l-41 -209h-129z" />
<glyph unicode="&#x152;" horiz-adv-x="2123" d="M94 610q0 164 52.5 323t152.5 282.5t243.5 200.5t327.5 77q125 0 243 -49t190 -162l38 180h910l-27 -119h-778l-111 -528h717l-27 -119h-716l-121 -577h797l-27 -119h-932l29 131l-4 4q-33 -45 -77 -75.5t-95.5 -50t-105.5 -29t-107 -9.5q-147 0 -256 48.5t-178.5 133.5 t-103.5 201.5t-34 255.5zM233 606q0 -102 26 -196.5t80 -166t136 -113.5t197 -42q80 0 152.5 24.5t131 68.5t99.5 107.5t57 141.5l131 621q4 23 6 37t2 20q0 68 -36.5 117t-93 82.5t-126 50t-137.5 16.5q-147 0 -264 -67.5t-197 -177t-122 -247t-42 -276.5z" />
<glyph unicode="&#x153;" horiz-adv-x="1857" d="M45 395q0 125 39 249t112.5 222.5t181 159.5t245.5 61q63 0 121.5 -16t103.5 -50t75.5 -84t39.5 -118h4q63 125 178 196.5t258 71.5q100 0 171 -34.5t117 -93t67.5 -136.5t21.5 -164q0 -43 -6.5 -82.5t-16.5 -82.5h-792q-10 -29 -13.5 -66t-3.5 -74q0 -131 82 -203.5 t209 -72.5q129 0 219 69.5t127 192.5h129q-53 -172 -177 -270.5t-306 -98.5q-143 0 -240.5 64.5t-132.5 208.5h-4q-57 -125 -165.5 -199t-250.5 -74q-193 0 -293 116t-100 308zM174 399q0 -68 16.5 -126t50 -101t86 -68.5t126.5 -25.5q117 0 197.5 63.5t129.5 157.5 t70.5 204.5t21.5 205.5q0 123 -71.5 196.5t-196.5 73.5q-109 0 -189.5 -55.5t-134 -141.5t-80 -188t-26.5 -195zM985 602h660q6 49 6 90q-2 59 -19.5 111.5t-51.5 91.5t-86 61.5t-122 22.5q-84 0 -148.5 -29.5t-111.5 -81t-79 -120t-48 -146.5z" />
<glyph unicode="&#x178;" horiz-adv-x="1175" d="M135 1462h148l329 -741l613 741h170l-733 -872l-130 -590h-141l133 604zM475 1595l39 209h131l-41 -209h-129zM801 1595l39 209h131l-41 -209h-129z" />
<glyph unicode="&#x2c6;" horiz-adv-x="378" d="M-4 1198l276 295h129l177 -295h-117l-135 217l-207 -217h-123z" />
<glyph unicode="&#x2dc;" horiz-adv-x="378" d="M-6 1229q10 37 24.5 73.5t36.5 67.5q23 29 54.5 47.5t72.5 18.5q39 0 74 -16.5t70 -37.5q35 -23 70.5 -42t72.5 -19q16 0 30.5 12.5t27 29.5t21.5 36.5t13 36.5h82q-8 -35 -22.5 -72t-36.5 -66q-23 -31 -52.5 -50t-70.5 -19t-80 17.5t-76 37.5q-37 23 -69.5 41t-61.5 18 q-18 0 -34.5 -11t-30 -28.5t-21.5 -37t-12 -37.5h-82z" />
<glyph unicode="&#x2000;" horiz-adv-x="974" />
<glyph unicode="&#x2001;" horiz-adv-x="1948" />
<glyph unicode="&#x2002;" horiz-adv-x="974" />
<glyph unicode="&#x2003;" horiz-adv-x="1948" />
<glyph unicode="&#x2004;" horiz-adv-x="649" />
<glyph unicode="&#x2005;" horiz-adv-x="487" />
<glyph unicode="&#x2006;" horiz-adv-x="324" />
<glyph unicode="&#x2007;" horiz-adv-x="324" />
<glyph unicode="&#x2008;" horiz-adv-x="243" />
<glyph unicode="&#x2009;" horiz-adv-x="389" />
<glyph unicode="&#x200a;" horiz-adv-x="108" />
<glyph unicode="&#x2010;" horiz-adv-x="757" d="M78 504l24 119h514l-24 -119h-514z" />
<glyph unicode="&#x2011;" horiz-adv-x="757" d="M78 504l24 119h514l-24 -119h-514z" />
<glyph unicode="&#x2012;" horiz-adv-x="757" d="M78 504l24 119h514l-24 -119h-514z" />
<glyph unicode="&#x2013;" horiz-adv-x="1024" d="M-47 504l24 119h1022l-24 -119h-1022z" />
<glyph unicode="&#x2014;" horiz-adv-x="2048" d="M217 504l25 119h1515l-24 -119h-1516z" />
<glyph unicode="&#x2018;" horiz-adv-x="569" d="M262 967l68 284q12 49 29.5 83t44 58.5t64.5 41t87 28.5l-16 -82q-37 -10 -60.5 -30.5t-39 -46t-24.5 -57.5l-18 -64h86l-49 -215h-172z" />
<glyph unicode="&#x2019;" horiz-adv-x="569" d="M225 965l17 82q37 10 59.5 30.5t37.5 46t25.5 57t18.5 64.5h-86l49 217h172l-67 -286q-12 -49 -30 -83t-44.5 -58.5t-64.5 -41t-87 -28.5z" />
<glyph unicode="&#x201a;" horiz-adv-x="569" d="M-23 -279l17 82q35 10 58.5 31t38.5 46.5t24.5 56t17.5 63.5h-86l49 217h172l-67 -285q-12 -49 -29.5 -82.5t-44.5 -58t-63.5 -41t-86.5 -29.5z" />
<glyph unicode="&#x201c;" horiz-adv-x="757" d="M195 967l67 284q12 49 29.5 83t44 58.5t64.5 41t87 28.5l-16 -82q-37 -10 -60.5 -30.5t-39 -46t-24.5 -57.5t-17 -64h86l-49 -215h-172zM508 967l67 284q12 49 30 83t44.5 58.5t64.5 41t87 28.5l-17 -82q-37 -10 -60.5 -30.5t-38.5 -46t-24.5 -57.5t-17.5 -64h86 l-49 -215h-172z" />
<glyph unicode="&#x201d;" horiz-adv-x="757" d="M137 965l17 82q37 10 59.5 30.5t37.5 46t25.5 57t18.5 64.5h-86l49 217h172l-68 -286q-12 -49 -29.5 -83t-44 -58.5t-64.5 -41t-87 -28.5zM451 965l16 82q37 10 59.5 30.5t38 46t25.5 57t18 64.5h-86l49 217h172l-67 -286q-12 -49 -29.5 -83t-44.5 -58.5t-64.5 -41 t-86.5 -28.5z" />
<glyph unicode="&#x201e;" horiz-adv-x="757" d="M-70 -279l17 82q35 10 58.5 31t38.5 46.5t24.5 56t17.5 63.5h-86l49 217h172l-67 -285q-12 -49 -30 -82.5t-44.5 -58t-63 -41t-86.5 -29.5zM242 -279l16 82q72 23 98.5 77t42.5 120h-86l49 217h173l-68 -285q-12 -49 -29.5 -82.5t-44 -58t-64.5 -41t-87 -29.5z" />
<glyph unicode="&#x2022;" horiz-adv-x="1024" d="M147 731q0 76 29 142.5t78 115.5t115.5 78t142.5 29t142.5 -29t116.5 -78t79 -115.5t29 -142.5t-29 -142.5t-79 -116.5t-116.5 -78.5t-142.5 -28.5t-142.5 28.5t-115.5 78.5t-78 116.5t-29 142.5z" />
<glyph unicode="&#x2026;" horiz-adv-x="2048" d="M106 0l48 217h174l-49 -217h-173zM791 0l47 217h174l-49 -217h-172zM1475 0l47 217h174l-49 -217h-172z" />
<glyph unicode="&#x202f;" horiz-adv-x="389" />
<glyph unicode="&#x2039;" horiz-adv-x="530" d="M104 526l31 131l326 232l-31 -139l-237 -172l153 -209l-24 -129z" />
<glyph unicode="&#x203a;" horiz-adv-x="530" d="M20 240l31 139l238 172l-154 209l25 129l217 -287l-31 -131z" />
<glyph unicode="&#x205f;" horiz-adv-x="487" />
<glyph unicode="&#x20ac;" d="M-4 584l51 90h113l16 123h-129l55 90h95q27 109 77 211t123.5 181t171 127t219.5 48q119 0 202 -38t169 -118l-69 -108q-66 70 -134.5 106.5t-167.5 36.5q-96 0 -168.5 -40t-127 -103.5t-91 -143t-61.5 -159.5h639l-53 -90h-609l-16 -123h569l-55 -90h-520 q0 -88 16.5 -177.5t56.5 -162t108.5 -117.5t172.5 -45q61 0 112.5 14.5t98.5 39t92 56t92 64.5l-38 -170q-88 -59 -173 -88t-192 -29q-137 0 -230.5 51.5t-149.5 136.5t-80.5 195.5t-24.5 231.5h-160z" />
<glyph unicode="&#x2122;" horiz-adv-x="2027" d="M168 1370v92h657v-92h-274v-752h-109v752h-274zM975 618v844h174l272 -684l265 684h174v-844h-109v746h-4l-299 -746h-62l-299 746h-4v-746h-108z" />
<glyph unicode="&#xe000;" horiz-adv-x="1054" d="M0 0v1055h1055v-1055h-1055z" />
<glyph unicode="&#xfb01;" horiz-adv-x="909" d="M37 0l209 948h-185l25 109h182l33 153q12 57 32.5 104.5t54.5 80t82 50t114 17.5q35 0 67.5 -2t65.5 -12l-23 -107q-20 4 -39.5 8.5t-40.5 4.5q-90 0 -130 -36t-56 -114l-31 -147h209l-24 -109h-207l-209 -948h-129zM508 0l227 1057h129l-227 -1057h-129zM778 1255 l45 207h129l-45 -207h-129z" />
<glyph unicode="&#xfb02;" horiz-adv-x="909" d="M37 0l209 948h-185l25 109h182l33 153q12 57 32.5 104.5t54.5 80t82 50t114 17.5q35 0 67.5 -2t65.5 -12l-23 -107q-20 4 -39.5 8.5t-40.5 4.5q-90 0 -130 -36t-56 -114l-31 -147h209l-24 -109h-207l-209 -948h-129zM508 0l315 1462h129l-315 -1462h-129z" />
</font>
</defs>
</svg>
